<?xml version="1.0" encoding="UTF-8" standalone="no"?>
<!-- Generator: Adobe Illustrator 25.0.1, SVG Export Plug-In . SVG Version: 6.00 Build 0)  -->

<svg
   version="1.1"
   id="Capa_1"
   x="0px"
   y="0px"
   viewBox="0 0 666624 599841"
   xml:space="preserve"
   sodipodi:docname="logo-constructora-bolivar.svg"
   width="666624"
   height="599841"
   xmlns:inkscape="http://www.inkscape.org/namespaces/inkscape"
   xmlns:sodipodi="http://sodipodi.sourceforge.net/DTD/sodipodi-0.dtd"
   xmlns="http://www.w3.org/2000/svg"
   xmlns:svg="http://www.w3.org/2000/svg"><defs
   id="defs83" /><sodipodi:namedview
   id="namedview81"
   pagecolor="#505050"
   bordercolor="#eeeeee"
   borderopacity="1"
   inkscape:showpageshadow="0"
   inkscape:pageopacity="0"
   inkscape:pagecheckerboard="0"
   inkscape:deskcolor="#505050"
   showgrid="false" />
<style
   type="text/css"
   id="style2">
	.st0{fill:#2B8B4B;}
	.st1{fill:#F8DB66;}
	.st2{fill-rule:evenodd;clip-rule:evenodd;fill:#F8DB66;}
</style>

<g
   id="g10"
   transform="translate(-216713.98,33953.029)">
	
<g
   id="g1679"
   transform="translate(-19.114917,-3.8229862)"
   inkscape:export-filename="..\..\Documents\mauneven\Tetco\Assets\Icons\Bolivar.svg"
   inkscape:export-xdpi="96"
   inkscape:export-ydpi="96"><path
     style="fill:#f6da65"
     d="m -40.5523,559.77852 c -16.52641,-5.89807 -25.19747,-20.3192 -24.07322,-40.03696 0.87289,-15.30916 8.314,-26.90297 21.03907,-32.78047 5.55359,-2.56511 7.32621,-2.87952 16.23431,-2.87952 8.70036,0 10.72604,0.34048 15.58648,2.61982 7.28666,3.41712 12.47646,8.72167 16.0919,16.44767 9.27526,19.82078 0.43592,46.70027 -18.17838,55.27847 -7.40584,3.41291 -19.24425,4.01191 -26.70016,1.35099 z m 22.49,-6.09054 c 6.50865,-3.32188 10.29156,-9.55835 12.22912,-20.16078 2.12255,-11.61472 -0.7515,-29.54817 -5.89253,-36.76808 -5.02642,-7.05895 -18.46578,-9.47581 -27.15138,-4.88276 -9.19293,4.86134 -13.76087,16.21991 -12.60367,31.34012 1.20893,15.79613 6.86081,27.36893 15.12862,30.97745 4.54221,1.98246 13.92266,1.72297 18.28984,-0.50595 z m 198.83993,-0.35901 c -3.86698,-11.11151 -21.32231,-55.22441 -23.68363,-59.85298 -1.2473,-2.44491 -3.24825,-4.32926 -5.89166,-5.54836 -2.20159,-1.01533 -4.01388,-2.07106 -4.02731,-2.34606 -0.0134,-0.275 7.17496,-0.50617 15.9742,-0.5137 15.48655,-0.0133 19.60909,0.61379 12.63592,1.92197 -1.84949,0.34696 -4.08932,1.43373 -4.97739,2.41504 -1.50228,1.66 -0.98459,3.34671 7.43689,24.23045 4.97836,12.34543 9.42009,22.82565 9.87051,23.28936 1.36134,1.40153 18.58522,-44.46089 17.63121,-46.94701 -0.25737,-0.6707 -2.07232,-1.79959 -4.03323,-2.50866 -1.9609,-0.70908 -3.56541,-1.53633 -3.56556,-1.83834 -1.6e-4,-0.30201 5.39954,-0.54911 11.99932,-0.54911 6.59977,0 11.9999,0.28291 12.00028,0.62868 3.7e-4,0.34577 -1.32738,1.17878 -2.95057,1.85113 -1.62319,0.67234 -3.63188,2.26122 -4.46376,3.53083 -1.45397,2.21903 -19.33213,46.73419 -25.19736,62.73936 -1.84618,5.03789 -3.37331,7.74909 -4.36384,7.7474 -1.00905,-0.002 -2.49336,-2.78859 -4.39402,-8.25 z m -333.62932,6.16089 c -2.5e-4,-0.32544 1.75583,-1.11791 3.90239,-1.76103 2.14656,-0.64313 4.95906,-2.02404 6.25,-3.0687 l 2.34716,-1.89938 0.31856,-29.70216 c 0.31305,-29.18921 0.28161,-29.7415 -1.82086,-31.97947 -1.17668,-1.25252 -4.13253,-2.83534 -6.56856,-3.51739 -2.43603,-0.68205 -4.42908,-1.5191 -4.429,-1.86012 7e-5,-0.34102 10.46257,-0.62004 23.25,-0.62004 21.50391,0 23.59027,0.15753 27.78289,2.0978 9.00568,4.16764 13.50067,13.09773 10.52059,20.90097 -1.93573,5.06863 -4.86807,7.97067 -11.07814,10.96365 l -4.67059,2.25102 4.39804,1.10744 c 5.7991,1.46023 12.05367,6.09274 14.12798,10.46403 3.35348,7.06694 0.91781,17.26561 -5.15638,21.59081 -7.4847,5.32958 -8.99691,5.57202 -34.92408,5.59902 -13.33725,0.0139 -24.24975,-0.24101 -24.25,-0.56645 z m 46.14802,-7.21443 c 5.75893,-2.43625 7.35153,-5.08316 7.35153,-12.21828 0,-5.35526 -0.37976,-6.72088 -2.5,-8.99003 -4.15821,-4.45025 -7.8528,-5.75654 -17.74454,-6.27395 l -9.25546,-0.48412 v 14.55293 c 0,10.67012 0.33351,14.70578 1.25,15.12583 2.19463,1.00585 17.42243,-0.24188 20.89847,-1.71238 z m -1.9479,-37.1188 c 4.50304,-2.13683 6.1992,-5.3948 6.10372,-11.72399 -0.1442,-9.55866 -4.59671,-12.8145 -17.55429,-12.83633 l -8.75,-0.0147 v 13.64096 13.64095 l 8.34534,-0.52064 c 4.65602,-0.29048 9.89699,-1.25696 11.85523,-2.18621 z m 134.08463,44.06993 c 0.15664,-0.47025 1.98634,-1.43996 4.066,-2.15492 8.01213,-2.75443 7.6488,-1.08431 7.6488,-35.15976 v -30.35971 l -3.20962,-1.95188 c -1.76529,-1.07354 -4.46529,-2.22768 -6,-2.56476 -6.32802,-1.38987 -1.79276,-1.95396 15.70962,-1.95396 10.175,0 18.5,0.24417 18.5,0.5426 0,0.29842 -1.94737,1.06343 -4.3275,1.70002 -2.38012,0.63659 -5.41762,2.03959 -6.75,3.1178 l -2.4225,1.96036 -0.30479,30.08961 -0.3048,30.08961 h 13.88048 c 13.17876,0 13.98938,-0.11592 16.03466,-2.29302 1.1848,-1.26116 2.65726,-3.73616 3.27214,-5.5 2.00087,-5.7397 3.00656,-3.50234 2.70984,6.02859 l -0.28753,9.23557 -29.2498,0.0144 c -16.0874,0.008 -29.12165,-0.37032 -28.965,-0.84058 z m 75.02517,-0.0761 c 0.1707,-0.5121 1.83337,-1.44389 3.69482,-2.07064 1.86145,-0.62674 4.30928,-2.37721 5.43963,-3.88993 1.93905,-2.59498 2.07253,-4.32033 2.36218,-30.53489 l 0.307,-27.7845 -2.58973,-3.07772 c -1.42435,-1.69274 -4.15,-3.59264 -6.057,-4.22201 -1.907,-0.62937 -3.46727,-1.44691 -3.46727,-1.81675 0,-0.36985 7.875,-0.67245 17.5,-0.67245 9.625,0 17.5,0.26627 17.5,0.59171 0,0.32544 -1.77586,1.12377 -3.94635,1.77407 -2.1705,0.6503 -4.90104,2.39605 -6.06788,3.87944 -2.06659,2.62724 -2.1133,3.42761 -1.80365,30.90476 0.30013,26.63253 0.43264,28.36125 2.37306,30.9582 1.13035,1.5128 3.57818,3.26333 5.43963,3.89007 6.91808,2.3293 3.89498,3.00175 -13.49481,3.00175 -10.35899,0 -17.37335,-0.37995 -17.18963,-0.93111 z m 115.68963,0.25603 c 0,-0.37129 1.9125,-1.72609 4.25,-3.01066 l 4.25,-2.3356 15.39379,-35.79188 c 14.63855,-34.03588 15.5149,-35.77703 17.8624,-35.48933 2.01949,0.24751 2.93023,1.4851 5.00596,6.80255 8.71042,22.31363 25.71749,62.7769 26.99943,64.23709 0.83877,0.9554 3.03554,2.2833 4.88173,2.95089 6.95792,2.51602 3.67892,3.31202 -13.64331,3.31202 -17.89616,0 -21.40155,-0.99382 -12.00226,-3.40278 2.74875,-0.70449 5.21241,-1.62824 5.4748,-2.05279 0.26238,-0.42454 -0.9018,-4.88322 -2.58708,-9.90816 l -3.06415,-9.13627 h -14.32474 -14.32474 l -3.57911,9.17347 c -1.96851,5.04542 -3.31982,9.43292 -3.00291,9.75 0.31691,0.31709 2.4306,1.30179 4.69709,2.18822 2.26649,0.88643 4.25414,2.01143 4.417,2.5 0.16285,0.48857 -5.7789,0.88831 -13.2039,0.88831 -7.425,0 -13.5,-0.30378 -13.5,-0.67508 z m 50,-29.31558 c 0,-1.00092 -10.36435,-28.04033 -11.05763,-28.84809 -0.60825,-0.7087 -11.94237,26.43427 -11.94237,28.59963 0,0.40651 5.175,0.73912 11.5,0.73912 6.325,0 11.5,-0.2208 11.5,-0.49066 z m 40,29.31821 c 0,-0.36984 1.6875,-1.21424 3.75,-1.87643 7.62538,-2.44821 7.25,-0.60596 7.25,-35.58043 v -31.31933 l -2.75,-1.40524 c -1.5125,-0.77288 -4.2125,-1.7202 -6,-2.10514 -7.13408,-1.53634 -2.23438,-2.03923 19.50204,-2.00165 16.44064,0.0284 23.92846,0.41953 27.00554,1.41056 6.0041,1.93373 11.97224,7.33303 13.21755,11.95777 1.20668,4.48125 0.0785,11.83539 -2.39474,15.60999 -1.99653,3.04709 -6.9679,6.32294 -10.8512,7.15032 -1.52394,0.3247 -2.99659,0.95568 -3.27255,1.40219 -0.80101,1.29605 12.57988,22.70903 17.7764,28.44698 2.60318,2.87439 6.09068,5.78852 7.75,6.47584 1.65933,0.68731 3.01696,1.60416 3.01696,2.03743 0,0.43328 -4.23535,0.78777 -9.41189,0.78777 h -9.41189 l -6.14649,-10.15909 c -3.38057,-5.5875 -8.60818,-13.64659 -11.6169,-17.90909 -5.43192,-7.69548 -5.50185,-7.75 -9.94162,-7.75 h -4.47121 v 14.546 14.54601 l 5.25,2.44423 c 2.8875,1.34432 5.8125,2.44862 6.5,2.45399 0.6875,0.005 1.25,0.34727 1.25,0.75977 0,0.4125 -8.1,0.75 -18,0.75 -9.9,0 -18,-0.3026 -18,-0.67245 z m 43.17222,-43.12163 c 4.88207,-2.04586 6.93233,-5.41909 6.9793,-11.48277 0.0806,-10.40021 -5.07248,-14.22315 -19.17176,-14.22315 h -7.97976 v 14.14096 14.14095 l 8.25,-0.51856 c 4.5375,-0.28521 9.9025,-1.21105 11.92222,-2.05743 z M 111.2834,477.83157 c 6.42965,-7.784 15.43346,-17.48415 17.01434,-18.33021 2.60682,-1.39513 5.32037,-0.37788 6.62395,2.48317 1.61356,3.54138 -0.34294,5.56814 -11.55954,11.97465 -10.1223,5.78148 -14.9284,7.3223 -12.07875,3.87239 z M -95.91335,445.24633 c -9.738,-2.68943 -14.31328,-8.3731 -14.37089,-17.85233 -0.0288,-4.74706 0.46611,-6.40069 2.99317,-10 1.66526,-2.37184 4.91758,-5.35717 7.22738,-6.63407 4.46013,-2.46565 13.32385,-3.86896 17.62263,-2.79003 2.33667,0.58646 2.58511,1.11072 2.54978,5.38072 l -0.0391,4.73095 -1.39794,-3.21515 c -3.20961,-7.38191 -16.29352,-4.99705 -20.77223,3.78623 -3.37184,6.6126 -1.70112,17.11068 3.40715,21.409 2.72113,2.28969 3.84852,2.57264 9.22074,2.31428 5.88447,-0.28301 6.188,-0.42937 7.86901,-3.79436 l 1.74844,-3.5 0.002,4.69098 c 8.5e-4,2.58004 -0.33595,4.89109 -0.74845,5.13567 -2.11335,1.25304 -11.26653,1.45516 -15.31121,0.33811 z m 31.28433,-0.78335 c -7.40267,-3.66425 -11.49036,-13.4137 -9.21236,-21.97218 2.88139,-10.82544 12.05756,-16.43164 22.56465,-13.78592 5.39561,1.35863 11.01062,7.15314 11.98991,12.37321 3.27998,17.48376 -10.87538,30.54582 -25.3422,23.38489 z m 15.00329,-2.58631 c 3.48605,-3.15483 4.77439,-6.9495 4.75163,-13.99544 -0.0245,-7.582 -2.48498,-14.43023 -5.82728,-16.21898 -4.97373,-2.66186 -12.20278,-0.68385 -15.14656,4.14439 -2.55102,4.18407 -2.73255,14.91412 -0.35293,20.86138 2.95611,7.38806 11.27745,10.00299 16.57514,5.20865 z m 59.02359,3.67374 c -2.3263,-0.93506 -2.55891,-2.3249 -1.25,-7.46884 0.76268,-2.99727 0.76348,-2.99757 0.88169,-0.32143 0.16361,3.70414 2.62062,5.82143 6.75548,5.82143 4.53245,0 7.22079,-1.4962 8.43727,-4.69578 1.36679,-3.59494 -0.64196,-6.28923 -8.03921,-10.78282 -6.65976,-4.04559 -8.03523,-5.84856 -8.03523,-10.53258 0,-6.40707 8.81118,-11.31281 16.5,-9.18659 2.50154,0.69176 3.04663,1.40019 3.28063,4.26369 0.2772,3.39194 0.26464,3.4034 -1.02299,0.93408 -2.77937,-5.33007 -13.75764,-2.47923 -13.75764,3.57258 0,3.08161 2.6182,5.69352 8.89624,8.87484 2.73049,1.38365 5.67086,3.52414 6.53415,4.75666 1.82082,2.59958 2.03955,7.04932 0.48893,9.94668 -2.36272,4.41478 -13.7395,7.20157 -19.66932,4.81808 z m 220.77975,-0.55231 c -7.8261,-3.39451 -11.43534,-9.70587 -10.84573,-18.96554 0.68685,-10.78682 7.72197,-17.65397 18.24158,-17.80602 12.58428,-0.18191 20.09397,11.1762 16.21396,24.52297 -3.20786,11.03462 -13.77246,16.51546 -23.60981,12.24859 z m 14.686,-3.89871 c 6.20323,-7.13818 5.07463,-24.0491 -1.93254,-28.95712 -3.22033,-2.2556 -8.99327,-1.9699 -12.26953,0.6072 -8.56796,6.73956 -6.63404,26.77179 2.98632,30.93331 3.33684,1.44343 8.81237,0.18222 11.21575,-2.58339 z m -279.71575,3.75105 c 3.52051,-1.17101 4,-3.43673 4,-18.90098 0,-11.10174 -0.34001,-15.46992 -1.25,-16.05887 -0.79061,-0.5117 0.22005,-0.99278 2.75,-1.30902 3.79681,-0.4746 4.12267,-0.29681 6.4149,3.5 1.32819,2.2 5.60319,8.2721 9.5,13.49356 l 7.0851,9.49356 0.28267,-11.85173 c 0.18801,-7.88295 -0.10414,-12.31781 -0.87244,-13.24356 -0.94779,-1.14201 -0.5498,-1.39428 2.21733,-1.40548 1.85484,-0.008 4.49744,-0.26977 5.87244,-0.5828 l 2.5,-0.56914 -2.5,1.36131 -2.5,1.3613 -0.27307,17.72149 c -0.22505,14.60491 -0.52553,17.72149 -1.70855,17.72149 -0.78952,0 -5.39163,-5.3324 -10.22693,-11.84978 -4.8353,-6.51738 -9.78713,-13.15488 -11.00407,-14.75 l -2.21262,-2.90022 0.21262,13.95621 0.21262,13.95622 2.5,0.67003 c 1.45742,0.39061 -0.62774,0.67322 -5,0.67769 -4.125,0.004 -6.825,-0.21686 -6,-0.49128 z m 80.25,-0.87554 2.75,-1.4572 v -15.96807 -15.96806 h -4.54827 c -4.17496,0 -4.66422,0.26676 -5.96086,3.25 l -1.41259,3.25 -0.0391,-4.5 -0.0391,-4.5 h 14.5 14.5 v 3.47251 c 0,3.42802 -0.0199,3.44403 -1.5567,1.25 -1.2115,-1.72965 -2.54205,-2.22251 -6,-2.22251 h -4.4433 v 14.56574 c 0,15.23082 0.60431,17.94813 4.31537,19.40428 1.48181,0.58143 -0.54991,0.86095 -6.31537,0.86886 -8.03285,0.011 -8.34886,-0.0684 -5.75,-1.44555 z m 49.91203,-7.33386 c -4.54865,-6.87634 -6.20279,-8.62169 -8.41203,-8.87589 l -2.75,-0.31642 v 7.4136 c 0,6.7 0.21658,7.51806 2.25,8.49875 1.8731,0.90336 1.16117,1.0939 -4.25,1.1375 -4.46076,0.0359 -6.02941,-0.24452 -5,-0.89395 1.20351,-0.75927 1.56303,-3.99694 1.81886,-16.37975 0.31337,-15.16715 0.27886,-15.46218 -2,-17.09964 -2.20577,-1.58494 -1.72265,-1.65102 9.90611,-1.35493 11.0833,0.28219 12.43277,0.51931 14.45,2.53904 3.04455,3.04831 2.9763,8.41785 -0.14928,11.74488 -1.30588,1.39004 -2.94432,2.52734 -3.64099,2.52734 -0.69666,0 -1.53509,0.43432 -1.86317,0.96516 -0.77603,1.25565 6.94086,13.4668 10.06183,15.92175 l 2.40928,1.89514 -3.58429,0.41844 c -3.52189,0.41116 -3.68284,0.26945 -9.24632,-8.14102 z m 0.61546,-13.61617 c 2.23979,-1.56881 3.05792,-6.64629 1.4572,-9.0436 -1.35061,-2.02272 -5.0643,-3.3997 -9.16895,-3.3997 h -4.06574 v 7 7 h 4.77749 c 2.70554,0 5.74138,-0.67513 7,-1.5567 z m 24.34311,20.90177 c -5.02375,-2.55724 -6.1206,-6.25966 -6.1206,-20.66014 0,-11.84961 -0.0963,-12.42573 -2.25,-13.46444 -1.83238,-0.88372 -0.85793,-1.08513 5.25,-1.08513 6.10793,0 7.08238,0.20141 5.25,1.08513 -1.96928,0.94975 -2.26912,1.90824 -2.40323,7.68232 -0.42043,18.10088 0.74497,22.4611 6.51774,24.38536 4.14701,1.38234 9.38863,0.0182 11.33309,-2.9494 2.52864,-3.85919 3.19415,-24.32885 0.90458,-27.82316 l -1.64829,-2.51561 h 3.99831 c 3.94778,0 3.9851,0.0347 2.95361,2.74773 -0.58205,1.53093 -0.77023,5.18434 -0.42493,8.25 0.34086,3.02625 0.16951,8.62121 -0.38078,12.43325 -0.81366,5.63656 -1.56448,7.49494 -4.02023,9.95069 -2.60831,2.60831 -3.87532,3.06494 -9.29979,3.35167 -4.49469,0.23758 -7.24083,-0.1571 -9.65948,-1.38827 z m 40.26331,-0.25819 c -5.90973,-2.68372 -9.62872,-7.99379 -10.17001,-14.52105 -0.53851,-6.49377 1.43117,-11.109 6.81811,-15.97579 4.46423,-4.03316 9.2233,-5.57671 17.21799,-5.58446 l 5.75,-0.006 -0.0304,4.25 c -0.0264,3.68453 -0.1813,3.9839 -1.16454,2.25 -1.64523,-2.90132 -2.83319,-3.46775 -7.30505,-3.48313 -8.91821,-0.0307 -14.5,6.03217 -14.5,15.74965 0,10.59825 4.65968,16.24429 13.38486,16.21817 5.56791,-0.0167 6.74675,-0.49794 8.33428,-3.40253 0.94321,-1.72571 1.12067,-1.58798 1.77143,1.37492 0.51089,2.32607 0.32486,3.54517 -0.63368,4.15253 -2.55527,1.61909 -15.10718,0.95987 -19.47298,-1.02273 z m 34.86609,0.34115 2.75,-1.4919 v -15.96807 -15.96806 h -4.54827 c -4.17496,0 -4.66422,0.26676 -5.96086,3.25 l -1.41259,3.25 -0.0391,-4.25 -0.0392,-4.25 h 14.5 14.5 l -0.04,3.75 -0.04,3.75 -1.49189,-2.75 c -1.28425,-2.36708 -2.11414,-2.75 -5.96005,-2.75 h -4.46806 l 0.0153,15.25 c 0.008,8.3875 0.34592,15.73846 0.75,16.33546 0.40408,0.59701 1.63469,1.59582 2.73469,2.21959 1.61745,0.9172 0.46981,1.13229 -6,1.1245 -7.65637,-0.009 -7.88188,-0.0737 -5.25,-1.50152 z m 65.44481,0.56122 c 2.93219,-1.18095 3.46493,-4.6939 3.10298,-20.46144 -0.29156,-12.70081 -0.35009,-12.99861 -2.79779,-14.23526 -2.21794,-1.12056 -1.54101,-1.27616 6,-1.37913 12.56624,-0.17157 15.26094,0.0885 17.79554,1.71722 5.6155,3.60859 5.26151,11.56163 -0.64681,14.53181 -1.81884,0.91436 -3.52967,1.88516 -3.80185,2.15734 -0.83583,0.83582 7.61168,13.46755 10.80134,16.15147 l 3.00523,2.52874 -4.32672,-10e-4 c -4.11946,-9.6e-4 -4.45473,-0.22851 -6.99872,-4.75 -5.11677,-9.09417 -8.67116,-13.249 -11.33428,-13.249 -2.43569,0 -2.49373,0.1738 -2.49373,7.46806 0,7.11864 0.12867,7.53787 2.75,8.95997 2.62907,1.42629 2.39819,1.49087 -5.25,1.46855 -5.64071,-0.0165 -7.35273,-0.28405 -5.80519,-0.90733 z m 20.08268,-21.54595 c 1.64843,-1.15461 2.22251,-2.56062 2.22251,-5.4433 0,-4.97061 -2.67372,-7 -9.22251,-7 h -4.77749 v 7 7 h 4.77749 c 2.70554,0 5.74138,-0.67513 7,-1.5567 z m 19.22251,21.07873 c 1.92081,-1.02022 4.23007,-5.40716 9.96765,-18.93572 4.10721,-9.68433 7.85888,-17.47747 8.33705,-17.31808 0.47816,0.15939 3.86772,7.70473 7.53234,16.76743 7.58327,18.75358 7.61176,18.80762 10.51529,19.94803 1.41426,0.55547 -0.75501,0.82552 -6.35233,0.79078 -7.07519,-0.0439 -8.03811,-0.22973 -5.7445,-1.10859 2.89305,-1.10854 2.93531,-1.70996 0.55613,-7.91588 -1.00949,-2.63319 -1.34795,-2.75 -7.96849,-2.75 h -6.91421 l -1.9896,4.64154 c -1.09428,2.55284 -1.86578,4.71441 -1.71446,4.80348 0.15132,0.0891 1.40013,0.6546 2.77513,1.25671 2.12129,0.92891 1.43962,1.0988 -4.5,1.12145 -6.39971,0.0244 -6.78561,-0.0872 -4.5,-1.30115 z m 20.27345,-19.27203 c -1.40587,-3.7125 -2.86611,-7.10108 -3.24497,-7.53017 -0.59363,-0.67236 -6.02848,11.5478 -6.02848,13.55493 0,0.39888 2.66165,0.72524 5.91479,0.72524 h 5.91479 z M 125.64786,377.48781 c 3.3,-2.97343 11.27759,-10.2688 17.72797,-16.21193 l 11.72798,-10.80569 4.76144,0.30569 4.76145,0.30569 -10.98942,8.07445 c -6.04418,4.44094 -16.16442,11.59875 -22.48942,15.90624 -11.3308,7.71656 -11.41172,7.75225 -5.5,2.42555 z m -129.5,-54.03481 v -26.12857 l 8.25,-8.23583 c 4.5375,-4.52971 12.46175,-10.99685 17.60944,-14.37143 5.14769,-3.37458 8.67276,-6.1356 7.83347,-6.1356 -0.83928,0 -5.84516,2.16691 -11.12417,4.81534 l -9.59821,4.81535 -2.47966,-5.24158 c -9.33506,-19.73269 -6.49557,-39.09777 8.09739,-55.22351 13.64502,-15.07823 42.70404,-29.19573 63.41174,-30.80678 l 7.5,-0.5835 4.4606,6.86234 c 2.45332,3.77429 8.02177,10.43306 12.37432,14.79727 l 7.91373,7.93494 -1.74648,5.56506 c -4.1297,13.15901 -13.9701,28.50921 -25.6386,39.99409 -5.35808,5.27375 -7.87664,7.07098 -9.90897,7.07098 -4.77876,0 -12.81791,-3.19114 -16.95054,-6.72852 -5.72279,-4.89849 -5.2904,-1.561 0.6158,4.75321 4.60169,4.91958 14.90648,10.97531 18.67623,10.97531 1.2059,0 7.11862,-5.16651 15.16375,-13.25 13.97194,-14.03858 21.40974,-24.15849 26.15866,-35.59163 1.52111,-3.6621 2.86568,-6.80733 2.98793,-6.98939 0.12225,-0.18206 1.17217,0.17735 2.33315,0.79868 5.13435,2.74783 21.25838,-11.02614 24.5665,-20.98596 0.93373,-2.8112 1.47241,-5.33655 1.19706,-5.61189 -0.27534,-0.27535 -2.68369,1.85015 -5.35188,4.72332 -5.33125,5.74081 -15.60618,12.90687 -18.5063,12.90687 -1.64015,0 -1.84496,-0.89165 -1.84496,-8.03212 0,-9.78321 -1.33132,-13.20595 -7.25297,-18.64684 -5.28329,-4.85436 -10.56038,-7.74164 -17.20952,-9.41591 -4.27675,-1.0769 -4.92204,-1.63392 -6.71708,-5.79824 -1.09219,-2.53379 -3.18609,-9.41839 -4.65311,-15.29912 -2.56575,-10.28508 -2.80059,-10.75333 -6.16732,-12.29694 -1.925,-0.8826 -4.53072,-2.38678 -5.79049,-3.34262 l -2.29049,-1.7379 5.78417,-6.39172 c 3.1813,-3.51544 7.78762,-7.66227 10.23628,-9.21515 l 4.45209,-2.82344 h 65.30422 65.30422 v 38 38 h -3.38953 c -5.78484,0 -19.45078,2.98004 -28.22442,6.15472 -4.61233,1.66893 -8.38605,3.14992 -8.38605,3.29108 0,0.14116 6.1875,0.22976 13.75,0.19688 10.89945,-0.0474 14.78656,0.31698 18.75,1.75759 2.75,0.99956 5.5625,2.27351 6.25,2.831 0.94147,0.76343 1.25,7.37718 1.25,26.79511 v 25.78149 l -3.32278,5.87859 c -11.10176,19.64103 -29.36665,42.76771 -52.57026,66.56354 l -13.40779,13.75 h -14.08624 -14.08623 l 5.48665,-3.6759 c 8.53823,-5.72037 16.83321,-14.77166 20.27214,-22.12048 2.55106,-5.45148 3.03075,-7.68017 2.9907,-13.89505 -0.04,-6.20551 -0.54652,-8.40496 -3.13326,-13.60536 -3.37069,-6.77644 -7.6196,-12.54362 -8.55763,-11.61554 -0.32669,0.32322 0.0879,1.95441 0.92118,3.62487 0.83334,1.67046 1.98444,5.5758 2.55801,8.67852 3.04778,16.48692 -9.41606,34.42539 -33.83294,48.6938 l -6.69981,3.91514 H 77.39341 49.10721 l 2.15717,-4.25 c 7.84961,-15.46509 20.06456,-27.91886 36.65872,-37.37545 8.5483,-4.87146 7.43368,-5.60796 -3.4199,-2.25976 -7.89737,2.43624 -16.48327,6.58066 -24.35534,11.75632 -7.3558,4.83623 -21.05697,18.06181 -26.76548,25.83642 l -4.62026,6.29247 H 12.45499 -3.85214 Z m 117,-23.68622 c 0,-0.44813 -1.53028,-1.54453 -3.40062,-2.43643 -4.71284,-2.2474 -8.47236,-7.54291 -9.2182,-12.9844 -1.21488,-8.86354 6.32957,-20.74133 16.11882,-25.37707 17.34951,-8.21593 30.89225,6.45286 21.56925,23.36269 -1.59198,2.8875 -2.50444,5.25 -2.02769,5.25 1.26668,0 7.89901,-8.94396 9.54524,-12.87212 3.6858,-8.79491 0.22174,-19.69976 -7.65702,-24.1043 -6.68136,-3.73515 -17.27678,-3.55627 -25.42279,0.4292 -23.42284,11.45973 -28.68855,41.71383 -8.36381,48.05428 5.01385,1.56411 8.85682,1.85836 8.85682,0.67815 z m -75.20407,-26.6523 c 7.69303,-8.41741 9.67127,-14.34497 9.68932,-29.03291 0.0198,-16.11293 -1.52172,-18.83149 -3.86797,-6.82139 -2.10847,10.79292 -7.45582,27.07759 -11.56325,35.21436 -1.67972,3.3275 -3.05403,6.52866 -3.05403,7.1137 0,1.89748 3.49814,-0.67714 8.79593,-6.47376 z M 28.7404,253.76082 c 0.24325,-12.64036 15.05369,-28.90029 37.40746,-41.06851 9.42798,-5.1321 6.70179,-5.33187 -7.11782,-0.52159 -12.12854,4.22168 -16.39016,6.28287 -24.06292,11.63837 -12.85153,8.97023 -16.27527,21.2893 -9.03872,32.52248 2.13318,3.31129 2.70893,2.78493 2.812,-2.57075 z m 149.87986,-49.42925 c -7.86237,-12.65267 -13.73679,-27.57721 -17.02352,-43.25 l -0.62913,-3 -2.13992,4 c -1.69836,3.17463 -2.14403,5.75392 -2.15987,12.5 -0.0238,10.11754 1.90171,14.86861 9.03796,22.30112 4.61547,4.80709 13.2322,11.62748 14.74876,11.67409 0.44367,0.0136 -0.38175,-1.88771 -1.83428,-4.22521 z m -21.5974,-55.78327 8.625,-0.0333 -2.34939,-1.95751 c -3.98466,-3.32 -11.69539,-4.97714 -23.08211,-4.96064 -5.81268,0.008 -11.14747,0.38266 -11.8551,0.83164 -1.9514,1.23813 13.55919,7.23208 17.1616,6.63198 1.58125,-0.26341 6.75625,-0.4939 11.5,-0.5122 z m -17.00403,-16.08161 c 6.85281,-0.95314 18.79872,-0.54972 23.50426,0.79375 3.41021,0.97365 0.68579,-1.61426 -4.42684,-4.20502 -6.567,-3.32775 -15.95493,-5.44104 -24.25098,-5.45907 -6.70636,-0.0146 -20.40332,2.45925 -22.03491,3.97975 -1.03138,0.96115 16.28418,7.02415 18.25692,6.39261 0.78069,-0.24992 4.80888,-0.92583 8.95155,-1.50202 z m 30.16474,215.74552 c 0.80536,-0.75315 6.86429,-6.09564 13.46429,-11.8722 12.06401,-10.55885 27.48346,-25.96541 35.28797,-35.25844 l 4.19912,-5 0.006,26.75 0.006,26.75 h -27.21429 c -23.0828,0 -26.99198,-0.20789 -25.75,-1.36936 z m -184.8822,-6.22984 c -8.99397,-8.13908 -11.66088,-13.16389 -11.62381,-21.9008 0.0394,-9.28198 2.44975,-13.77755 12.84481,-23.95679 l 8.12549,-7.95678 0.30668,4.19014 c 0.24227,3.30997 -0.59797,6.01582 -4,12.8814 -4.25647,8.58992 -4.30667,8.81455 -4.30588,19.26664 7.1e-4,9.45798 0.2928,11.19903 2.76439,16.47767 1.51997,3.24625 2.60792,6.05795 2.41765,6.24822 -0.19027,0.19027 -3.12847,-2.1721 -6.52933,-5.2497 z m 238.84649,-64.14004 c 0,-13.29863 0.14237,-14.29812 2.90437,-20.38958 4.48121,-9.88309 6.41751,-17.65888 6.44237,-25.87118 0.0256,-8.44913 -1.45191,-12.77231 -6.22164,-18.20474 -2.78502,-3.17196 -3.1251,-4.23742 -3.1251,-9.79082 v -6.23153 l 4.75,0.7035 c 12.00145,1.77748 20.84632,8.88727 23.83173,19.15673 4.38213,15.07402 -2.4367,37.219 -19.25548,62.5345 -9.61227,14.46833 -9.32625,14.52681 -9.32625,-1.90688 z m -228,-3.44172 v -12.20138 l 3.57488,5.94117 c 1.96618,3.26764 4.14773,6.61617 4.84789,7.44117 2.69179,3.17174 2.43749,3.80962 -2.94297,7.38204 l -5.4798,3.63839 z m -2.3786,-27.56904 c -0.31623,-3.1625 -0.18717,-7.55 0.28682,-9.75 0.71297,-3.30927 0.88164,-2.31634 0.97678,5.75 0.0633,5.3625 -0.0658,9.75 -0.28681,9.75 -0.221,0 -0.66055,-2.5875 -0.97679,-5.75 z m 2.38798,-74 -0.00938,-52.25 H 33.2847 70.42154 l -4.54405,4.85796 c -5.12034,5.47406 -8.23658,10.99692 -9.24851,16.391 -0.63282,3.37321 -0.43089,3.81098 2.61114,5.66096 1.81336,1.10276 5.36555,2.53517 7.89376,3.18313 l 4.59675,1.17812 3.9808,11.75765 3.9808,11.75766 -6.75451,0.66557 C 46.68496,178.6205 10.443,200.05448 -0.69597,219.58157 l -3.1374,5.5 -0.009,-52.25 z m 111.14013,27.19971 c -2.39277,-2.72234 -5.02083,-6.2433 -5.84014,-7.82436 l -1.48965,-2.87464 4.25156,2.37464 c 5.42809,3.03179 8.18756,6.73777 7.75989,10.42156 l -0.33117,2.85251 z m -31.76082,-81.2696 c 0.93309,-1.50977 16.47306,-8.76285 23.11131,-10.78691 4.35771,-1.3287 9.14773,-1.82215 17.5,-1.8028 9.89119,0.0229 12.60381,0.40876 19.39015,2.7581 7.0967,2.45678 17.15799,7.4674 16.40502,8.16986 -0.16234,0.15145 -3.67017,-0.64747 -7.79517,-1.77539 -5.84152,-1.59727 -10.59582,-2.06077 -21.5,-2.09603 -13.01278,-0.0421 -14.52887,0.15501 -21.5,2.79518 -5.68978,2.15488 -9.75744,2.94418 -16.85292,3.27021 -5.84374,0.2685 -9.12985,0.0688 -8.75839,-0.53222 z"
     id="path1771" /><path
     style="fill:#f4d964"
     d="m 41.14786,230.20401 c 0,-0.20765 0.7875,-0.99515 1.75,-1.75 1.58606,-1.24387 1.62143,-1.2085 0.37756,0.37756 -1.30637,1.66575 -2.12756,2.19548 -2.12756,1.37244 z"
     id="path1769" /><path
     style="fill:#edd664"
     d="m 143.22681,414.99824 c 0.048,-1.16495 0.28494,-1.4019 0.60416,-0.60417 0.28887,0.72187 0.25335,1.58438 -0.0789,1.91667 -0.33229,0.33229 -0.56864,-0.25834 -0.52522,-1.3125 z"
     id="path1767" /><path
     style="fill:#e9d463"
     d="m 170.96036,445.89846 c 0.72187,-0.28887 1.58438,-0.25335 1.91667,0.0789 0.33229,0.33229 -0.25834,0.56864 -1.3125,0.52522 -1.16495,-0.048 -1.4019,-0.28494 -0.60417,-0.60416 z m -14,-298 c 0.72187,-0.28887 1.58438,-0.25335 1.91667,0.0789 0.33229,0.33229 -0.25834,0.56864 -1.3125,0.52522 -1.16495,-0.048 -1.4019,-0.28494 -0.60417,-0.60416 z"
     id="path1765" /><path
     style="fill:#e7d463"
     d="m 163.14786,340.08157 c 1.29175,-1.375 2.57363,-2.5 2.84863,-2.5 0.275,0 -0.55688,1.125 -1.84863,2.5 -1.29175,1.375 -2.57363,2.5 -2.84863,2.5 -0.275,0 0.55688,-1.125 1.84863,-2.5 z m -23,-1.87756 c 0,-0.20765 0.7875,-0.99515 1.75,-1.75 1.58606,-1.24387 1.62143,-1.2085 0.37756,0.37756 -1.30637,1.66575 -2.12756,2.19548 -2.12756,1.37244 z"
     id="path1763" /><path
     style="fill:#e5d262"
     d="m 157.14786,346.08157 c 1.86578,-1.925 3.61733,-3.5 3.89233,-3.5 0.275,0 -1.02655,1.575 -2.89233,3.5 -1.86578,1.925 -3.61733,3.5 -3.89233,3.5 -0.275,0 1.02655,-1.575 2.89233,-3.5 z"
     id="path1761" /><path
     style="fill:#ddd061"
     d="m -143.60214,559.89224 c 0.9625,-0.25152 2.5375,-0.25152 3.5,0 0.9625,0.25153 0.175,0.45733 -1.75,0.45733 -1.925,0 -2.7125,-0.2058 -1.75,-0.45733 z m 12.5625,0.006 c 0.72188,-0.28887 1.58438,-0.25335 1.91667,0.0789 0.33229,0.33229 -0.25834,0.56864 -1.3125,0.52522 -1.16495,-0.048 -1.4019,-0.28494 -0.60417,-0.60416 z m 168.9375,0.0208 c 0.6875,-0.27741 1.8125,-0.27741 2.5,0 0.6875,0.27741 0.125,0.50439 -1.25,0.50439 -1.375,0 -1.9375,-0.22698 -1.25,-0.50439 z m 26,0 c 0.6875,-0.27741 1.8125,-0.27741 2.5,0 0.6875,0.27741 0.125,0.50439 -1.25,0.50439 -1.375,0 -1.9375,-0.22698 -1.25,-0.50439 z m -206.98834,-75.04473 c 1.24391,-0.23919 3.04391,-0.23011 4,0.0202 0.95609,0.25029 -0.0617,0.446 -2.26166,0.4349 -2.2,-0.0111 -2.98225,-0.21589 -1.73834,-0.45508 z m 248.05084,-39.97585 c 0.72187,-0.28887 1.58438,-0.25335 1.91667,0.0789 0.33229,0.33229 -0.25834,0.56864 -1.3125,0.52522 -1.16495,-0.048 -1.4019,-0.28494 -0.60417,-0.60416 z"
     id="path1759" /><path
     style="fill:#d9ce61"
     d="m 48.58356,527.08157 c 5.7e-4,-14.3 0.14102,-20.01094 0.31211,-12.69097 0.17108,7.31996 0.17062,19.01996 -0.001,26 -0.17166,6.98003 -0.31164,0.99097 -0.31107,-13.30903 z m 214.94606,-100 c 0.002,-6.6 0.16382,-9.16987 0.35965,-5.71081 0.19583,3.45905 0.19422,8.85905 -0.004,12 -0.19781,3.14094 -0.35803,0.31081 -0.35606,-6.28919 z m -185.00359,-0.5 c 0,-6.325 0.16237,-8.9125 0.36082,-5.75 0.19845,3.1625 0.19845,8.3375 0,11.5 -0.19845,3.1625 -0.36082,0.575 -0.36082,-5.75 z m 23.49427,-218.75 c -1.24387,-1.58606 -1.2085,-1.62143 0.37756,-0.37756 1.66575,1.30637 2.19548,2.12756 1.37244,2.12756 -0.20765,0 -0.99515,-0.7875 -1.75,-1.75 z"
     id="path1757" /><path
     style="fill:#d5cd60"
     d="m 53.53958,424.58157 c 0,-7.425 0.15742,-10.4625 0.34983,-6.75 0.19241,3.7125 0.19241,9.7875 0,13.5 -0.19241,3.7125 -0.34983,0.675 -0.34983,-6.75 z"
     id="path1755" /><path
     style="fill:#cdc960"
     d="m -137.60214,559.89224 c 0.9625,-0.25152 2.5375,-0.25152 3.5,0 0.9625,0.25153 0.175,0.45733 -1.75,0.45733 -1.925,0 -2.7125,-0.2058 -1.75,-0.45733 z m 181.01903,-0.004 c 0.97297,-0.25354 2.32297,-0.23687 3,0.0371 0.67703,0.27393 -0.11903,0.48137 -1.76903,0.46099 -1.65,-0.0204 -2.20394,-0.2445 -1.23097,-0.49804 z m 15,0 c 0.97297,-0.25354 2.32297,-0.23687 3,0.0371 0.67703,0.27393 -0.11903,0.48137 -1.76903,0.46099 -1.65,-0.0204 -2.20394,-0.2445 -1.23097,-0.49804 z m 273.48097,-42.0124 c 1.2375,-0.23836 3.2625,-0.23836 4.5,0 1.2375,0.23835 0.225,0.43337 -2.25,0.43337 -2.475,0 -3.4875,-0.19502 -2.25,-0.43337 z m -364,-109.95655 c 0.6875,-0.27741 1.8125,-0.27741 2.5,0 0.6875,0.27741 0.125,0.50439 -1.25,0.50439 -1.375,0 -1.9375,-0.22698 -1.25,-0.50439 z m 80.01791,-0.0625 c 1.79735,-0.22256 4.49735,-0.21797 6,0.0102 1.50265,0.22818 0.0321,0.41027 -3.26791,0.40466 -3.3,-0.006 -4.52944,-0.1923 -2.73209,-0.41486 z"
     id="path1753" /><path
     style="fill:#cac85f"
     d="m -140.77319,537.99824 c 0.048,-1.16495 0.28494,-1.4019 0.60416,-0.60417 0.28888,0.72187 0.25335,1.58438 -0.079,1.91667 -0.33229,0.33229 -0.56864,-0.25834 -0.52522,-1.3125 z m 0.0789,-37.41667 c 0,-1.375 0.22697,-1.9375 0.50438,-1.25 0.27741,0.6875 0.27741,1.8125 0,2.5 -0.27741,0.6875 -0.50438,0.125 -0.50438,-1.25 z m 271.8421,-168.37756 c 0,-0.20765 0.7875,-0.99515 1.75,-1.75 1.58606,-1.24387 1.62143,-1.2085 0.37756,0.37756 -1.30637,1.66575 -2.12756,2.19548 -2.12756,1.37244 z"
     id="path1751" /><path
     style="fill:#c5c65e"
     d="m -140.77319,533.99824 c 0.048,-1.16495 0.28494,-1.4019 0.60416,-0.60417 0.28888,0.72187 0.25335,1.58438 -0.079,1.91667 -0.33229,0.33229 -0.56864,-0.25834 -0.52522,-1.3125 z m 0.0789,-27.41667 c 0,-1.375 0.22697,-1.9375 0.50438,-1.25 0.27741,0.6875 0.27741,1.8125 0,2.5 -0.27741,0.6875 -0.50438,0.125 -0.50438,-1.25 z m 136.30802,-333 c 0,-29.425 0.12752,-41.4625 0.28337,-26.75 0.15586,14.7125 0.15586,38.7875 0,53.5 -0.15585,14.7125 -0.28337,2.675 -0.28337,-26.75 z"
     id="path1749" /><path
     style="fill:#c0c55d"
     d="m 49.41161,559.86399 c 1.52006,-0.22986 3.77006,-0.22371 5,0.0136 1.22994,0.23736 -0.0138,0.42542 -2.76375,0.41792 -2.75,-0.008 -3.75631,-0.20172 -2.23625,-0.43157 z m -190.1848,-49.86575 c 0.048,-1.16495 0.28494,-1.4019 0.60416,-0.60417 0.28888,0.72187 0.25335,1.58438 -0.079,1.91667 -0.33229,0.33229 -0.56864,-0.25834 -0.52522,-1.3125 z m 297.73355,-25.09978 c 0.72187,-0.28887 1.58438,-0.25335 1.91667,0.0789 0.33229,0.33229 -0.25834,0.56864 -1.3125,0.52522 -1.16495,-0.048 -1.4019,-0.28494 -0.60417,-0.60416 z m 158.45653,-0.01 c 0.97297,-0.25354 2.32297,-0.23687 3,0.0371 0.67703,0.27393 -0.11903,0.48137 -1.76903,0.46099 -1.65,-0.0204 -2.20394,-0.2445 -1.23097,-0.49804 z m 8.54347,0.01 c 0.72187,-0.28887 1.58438,-0.25335 1.91667,0.0789 0.33229,0.33229 -0.25834,0.56864 -1.3125,0.52522 -1.16495,-0.048 -1.4019,-0.28494 -0.60417,-0.60416 z M 81.89786,407.91929 c 0.6875,-0.27741 1.8125,-0.27741 2.5,0 0.6875,0.27741 0.125,0.50439 -1.25,0.50439 -1.375,0 -1.9375,-0.22698 -1.25,-0.50439 z m 112.0625,-0.0208 c 0.72187,-0.28887 1.58438,-0.25335 1.91667,0.0789 0.33229,0.33229 -0.25834,0.56864 -1.3125,0.52522 -1.16495,-0.048 -1.4019,-0.28494 -0.60417,-0.60416 z m 12,0 c 0.72187,-0.28887 1.58438,-0.25335 1.91667,0.0789 0.33229,0.33229 -0.25834,0.56864 -1.3125,0.52522 -1.16495,-0.048 -1.4019,-0.28494 -0.60417,-0.60416 z m 62,0 c 0.72187,-0.28887 1.58438,-0.25335 1.91667,0.0789 0.33229,0.33229 -0.25834,0.56864 -1.3125,0.52522 -1.16495,-0.048 -1.4019,-0.28494 -0.60417,-0.60416 z m -142,-160 c 0.72187,-0.28887 1.58438,-0.25335 1.91667,0.0789 0.33229,0.33229 -0.25834,0.56864 -1.3125,0.52522 -1.16495,-0.048 -1.4019,-0.28494 -0.60417,-0.60416 z"
     id="path1747" /><path
     style="fill:#bcc35d"
     d="m -140.77319,513.99824 c 0.048,-1.16495 0.28494,-1.4019 0.60416,-0.60417 0.28888,0.72187 0.25335,1.58438 -0.079,1.91667 -0.33229,0.33229 -0.56864,-0.25834 -0.52522,-1.3125 z M 65.44752,412.58157 c 0,-3.025 0.18747,-4.2625 0.41659,-2.75 0.22913,1.5125 0.22913,3.9875 0,5.5 -0.22912,1.5125 -0.41659,0.275 -0.41659,-2.75 z"
     id="path1745" /><path
     style="fill:#b5c05c"
     d="m -140.57978,521.58157 c 0,-2.475 0.19502,-3.4875 0.43337,-2.25 0.23836,1.2375 0.23836,3.2625 0,4.5 -0.23835,1.2375 -0.43337,0.225 -0.43337,-2.25 z m 410.01365,-88.5 c 0.008,-2.75 0.20172,-3.75631 0.43157,-2.23625 0.22986,1.52006 0.22371,3.77006 -0.0136,5 -0.23736,1.22994 -0.42542,-0.0137 -0.41792,-2.76375 z"
     id="path1743" /><path
     style="fill:#b1be5c"
     d="m -126.09048,516.87431 c 1.24391,-0.23919 3.04391,-0.23011 4,0.0202 0.95609,0.25029 -0.0617,0.446 -2.26166,0.4349 -2.2,-0.0111 -2.98225,-0.21589 -1.73834,-0.45508 z m 287.50737,-31.98573 c 0.97297,-0.25354 2.32297,-0.23687 3,0.0371 0.67703,0.27393 -0.11903,0.48137 -1.76903,0.46099 -1.65,-0.0204 -2.20394,-0.2445 -1.23097,-0.49804 z m 48.54347,0.01 c 0.72187,-0.28887 1.58438,-0.25335 1.91667,0.0789 0.33229,0.33229 -0.25834,0.56864 -1.3125,0.52522 -1.16495,-0.048 -1.4019,-0.28494 -0.60417,-0.60416 z m 111,0 c 0.72187,-0.28887 1.58438,-0.25335 1.91667,0.0789 0.33229,0.33229 -0.25834,0.56864 -1.3125,0.52522 -1.16495,-0.048 -1.4019,-0.28494 -0.60417,-0.60416 z M 203.53958,424.58157 c 0,-7.425 0.15742,-10.4625 0.34983,-6.75 0.19241,3.7125 0.19241,9.7875 0,13.5 -0.19241,3.7125 -0.34983,0.675 -0.34983,-6.75 z M 85.89786,410.91929 c 0.6875,-0.27741 1.8125,-0.27741 2.5,0 0.6875,0.27741 0.125,0.50439 -1.25,0.50439 -1.375,0 -1.9375,-0.22698 -1.25,-0.50439 z m -8,-3 c 0.6875,-0.27741 1.8125,-0.27741 2.5,0 0.6875,0.27741 0.125,0.50439 -1.25,0.50439 -1.375,0 -1.9375,-0.22698 -1.25,-0.50439 z m 38,0 c 0.6875,-0.27741 1.8125,-0.27741 2.5,0 0.6875,0.27741 0.125,0.50439 -1.25,0.50439 -1.375,0 -1.9375,-0.22698 -1.25,-0.50439 z m 83.01166,-0.045 c 1.24391,-0.23919 3.04391,-0.23011 4,0.0202 0.95609,0.25029 -0.0617,0.446 -2.26166,0.4349 -2.2,-0.0111 -2.98225,-0.21589 -1.73834,-0.45508 z m 63.98834,0.045 c 0.6875,-0.27741 1.8125,-0.27741 2.5,0 0.6875,0.27741 0.125,0.50439 -1.25,0.50439 -1.375,0 -1.9375,-0.22698 -1.25,-0.50439 z"
     id="path1741" /><path
     style="fill:#adbd5b"
     d="m -4.41748,324.58157 c 0,-14.025 0.14065,-19.7625 0.31255,-12.75 0.1719,7.0125 0.1719,18.4875 0,25.5 -0.1719,7.0125 -0.31255,1.275 -0.31255,-12.75 z m -0.43466,-51.5 c 0,-7.60833 0.27516,-13.55817 0.61147,-13.22187 0.68761,0.68761 0.5315,25.91224 -0.16468,26.60841 -0.24573,0.24574 -0.44679,-5.77821 -0.44679,-13.38654 z"
     id="path1739" /><path
     style="fill:#a5ba5a"
     d="m 284.96036,559.89846 c 0.72187,-0.28887 1.58438,-0.25335 1.91667,0.0789 0.33229,0.33229 -0.25834,0.56864 -1.3125,0.52522 -1.16495,-0.048 -1.4019,-0.28494 -0.60417,-0.60416 z m 44,0 c 0.72187,-0.28887 1.58438,-0.25335 1.91667,0.0789 0.33229,0.33229 -0.25834,0.56864 -1.3125,0.52522 -1.16495,-0.048 -1.4019,-0.28494 -0.60417,-0.60416 z m -72.54347,-78.00988 c 0.97297,-0.25354 2.32297,-0.23687 3,0.0371 0.67703,0.27393 -0.11903,0.48137 -1.76903,0.46099 -1.65,-0.0204 -2.20394,-0.2445 -1.23097,-0.49804 z M -4.03964,445.89846 c 0.72187,-0.28887 1.58437,-0.25335 1.91667,0.0789 0.33229,0.33229 -0.25834,0.56864 -1.3125,0.52522 -1.16495,-0.048 -1.4019,-0.28494 -0.60417,-0.60416 z M 121.41689,112.88858 c 0.97297,-0.25354 2.32297,-0.23687 3,0.0371 0.67703,0.27393 -0.11903,0.48137 -1.76903,0.46099 -1.65,-0.0204 -2.20394,-0.2445 -1.23097,-0.49804 z"
     id="path1737" /><path
     style="fill:#96b458"
     d="m 277.96036,559.89846 c 0.72187,-0.28887 1.58438,-0.25335 1.91667,0.0789 0.33229,0.33229 -0.25834,0.56864 -1.3125,0.52522 -1.16495,-0.048 -1.4019,-0.28494 -0.60417,-0.60416 z m 4,0 c 0.72187,-0.28887 1.58438,-0.25335 1.91667,0.0789 0.33229,0.33229 -0.25834,0.56864 -1.3125,0.52522 -1.16495,-0.048 -1.4019,-0.28494 -0.60417,-0.60416 z m 40,0 c 0.72187,-0.28887 1.58438,-0.25335 1.91667,0.0789 0.33229,0.33229 -0.25834,0.56864 -1.3125,0.52522 -1.16495,-0.048 -1.4019,-0.28494 -0.60417,-0.60416 z m 10.45653,-69.00988 c 0.97297,-0.25354 2.32297,-0.23687 3,0.0371 0.67703,0.27393 -0.11903,0.48137 -1.76903,0.46099 -1.65,-0.0204 -2.20394,-0.2445 -1.23097,-0.49804 z M 215.44752,412.58157 c 0,-3.025 0.18747,-4.2625 0.41659,-2.75 0.22913,1.5125 0.22913,3.9875 0,5.5 -0.22912,1.5125 -0.41659,0.275 -0.41659,-2.75 z m -34.54966,-62.74772 c 7.8375,-0.16896 20.6625,-0.16896 28.5,0 7.8375,0.16896 1.425,0.3072 -14.25,0.3072 -15.675,0 -22.0875,-0.13824 -14.25,-0.3072 z m -71.5,-230.00038 c 8.6625,-0.16648 22.8375,-0.16648 31.5,0 8.6625,0.16648 1.575,0.30269 -15.75,0.30269 -17.325,0 -24.4125,-0.13621 -15.75,-0.30269 z m 65.06351,-4.9e-4 c 9.24743,-0.16519 24.09743,-0.16488 33,6.9e-4 8.90257,0.16557 1.33649,0.30072 -16.81351,0.30034 -18.15,-3.8e-4 -25.43392,-0.13584 -16.18649,-0.30103 z"
     id="path1735" /><path
     style="fill:#94b358"
     d="m 223.58655,322.58157 c 0,-15.125 0.13899,-21.3125 0.30888,-13.75 0.16988,7.5625 0.16988,19.9375 0,27.5 -0.16989,7.5625 -0.30888,1.375 -0.30888,-13.75 z m -0.003,-85.5 c 5.7e-4,-14.3 0.14102,-20.01094 0.31211,-12.69097 0.17108,7.31996 0.17062,19.01996 -0.001,26 -0.17166,6.98003 -0.31164,0.99097 -0.31107,-13.30903 z m 30.64325,-10.08333 c 0.048,-1.16495 0.28494,-1.4019 0.60416,-0.60417 0.28887,0.72187 0.25335,1.58438 -0.0789,1.91667 -0.33229,0.33229 -0.56864,-0.25834 -0.52522,-1.3125 z m -30.62475,-68.41667 c 0,-21.175 0.13253,-29.8375 0.2945,-19.25 0.16197,10.5875 0.16197,27.9125 0,38.5 -0.16197,10.5875 -0.2945,1.925 -0.2945,-19.25 z"
     id="path1733" /><path
     style="fill:#90b157"
     d="m 329.46793,531.58157 c 0,-3.575 0.1815,-5.0375 0.40333,-3.25 0.22182,1.7875 0.22182,4.7125 0,6.5 -0.22183,1.7875 -0.40333,0.325 -0.40333,-3.25 z"
     id="path1731" /><path
     style="fill:#8cb056"
     d="m 223.5478,279.08157 c 0.001,-8.25 0.15629,-11.49193 0.34419,-7.20429 0.1879,4.28763 0.18676,11.03763 -0.003,15 -0.1893,3.96236 -0.34304,0.45429 -0.34164,-7.79571 z m -0.0637,-75.5 c 0,-4.125 0.17651,-5.8125 0.39226,-3.75 0.21574,2.0625 0.21574,5.4375 0,7.5 -0.21575,2.0625 -0.39226,0.375 -0.39226,-3.75 z"
     id="path1729" /><path
     style="fill:#89ae56"
     d="m 184.96036,561.89846 c 0.72187,-0.28887 1.58438,-0.25335 1.91667,0.0789 0.33229,0.33229 -0.25834,0.56864 -1.3125,0.52522 -1.16495,-0.048 -1.4019,-0.28494 -0.60417,-0.60416 z m 153,-71 c 0.72187,-0.28887 1.58438,-0.25335 1.91667,0.0789 0.33229,0.33229 -0.25834,0.56864 -1.3125,0.52522 -1.16495,-0.048 -1.4019,-0.28494 -0.60417,-0.60416 z M 197.53958,424.58157 c 0,-7.425 0.15742,-10.4625 0.34983,-6.75 0.19241,3.7125 0.19241,9.7875 0,13.5 -0.19241,3.7125 -0.34983,0.675 -0.34983,-6.75 z m -113.10571,7.5 c 0.008,-2.75 0.20172,-3.75631 0.43157,-2.23625 0.22986,1.52006 0.22371,3.77006 -0.0136,5 -0.23736,1.22994 -0.42542,-0.0137 -0.41792,-2.76375 z m 185.14261,-15 c 0.0694,-5.83754 0.14618,-6.0033 2.83375,-6.12181 2.43593,-0.10742 2.47092,-0.0706 0.29611,0.31197 -2.22665,0.39164 -2.50197,0.98642 -2.83375,6.12181 l -0.36749,5.68803 0.0714,-6 z M 157.39786,349.86532 c 1.5125,-0.22913 3.9875,-0.22913 5.5,0 1.5125,0.22912 0.275,0.41659 -2.75,0.41659 -3.025,0 -4.2625,-0.18747 -2.75,-0.41659 z M 78.42803,119.8453 c 2.6291,-0.20668 6.6791,-0.20418 9,0.006 2.32091,0.20972 0.16983,0.37882 -4.78017,0.37577 -4.95,-0.003 -6.84892,-0.17464 -4.21983,-0.38131 z"
     id="path1727" /><path
     style="fill:#81ac55"
     d="m 185.44752,412.58157 c 0,-3.025 0.18747,-4.2625 0.41659,-2.75 0.22913,1.5125 0.22913,3.9875 0,5.5 -0.22912,1.5125 -0.41659,0.275 -0.41659,-2.75 z m -94.79966,-149 c 0.99549,-1.1 2.03498,-2 2.30998,-2 0.275,0 -0.31449,0.9 -1.30998,2 -0.99549,1.1 -2.03498,2 -2.30998,2 -0.275,0 0.31449,-0.9 1.30998,-2 z"
     id="path1725" /><path
     style="fill:#7caa55"
     d="m 116.96036,559.89846 c 0.72187,-0.28887 1.58438,-0.25335 1.91667,0.0789 0.33229,0.33229 -0.25834,0.56864 -1.3125,0.52522 -1.16495,-0.048 -1.4019,-0.28494 -0.60417,-0.60416 z m 146.4375,-24.00622 c 0.9625,-0.25152 2.5375,-0.25152 3.5,0 0.9625,0.25153 0.175,0.45733 -1.75,0.45733 -1.925,0 -2.7125,-0.2058 -1.75,-0.45733 z m -389.48834,-11.01793 c 1.24391,-0.23919 3.04391,-0.23011 4,0.0202 0.95609,0.25029 -0.0617,0.446 -2.26166,0.4349 -2.2,-0.0111 -2.98225,-0.21589 -1.73834,-0.45508 z m 237.43329,-4.79274 c 0.0204,-1.65 0.2445,-2.20394 0.49804,-1.23097 0.25354,0.97297 0.23687,2.32297 -0.0371,3 -0.27393,0.67703 -0.48137,-0.11903 -0.46099,-1.76903 z m 218.19677,-15.5 c 0,-7.425 0.15742,-10.4625 0.34983,-6.75 0.19241,3.7125 0.19241,9.7875 0,13.5 -0.19241,3.7125 -0.34983,0.675 -0.34983,-6.75 z m -58.57922,-76.68311 c 0.72187,-0.28887 1.58438,-0.25335 1.91667,0.0789 0.33229,0.33229 -0.25834,0.56864 -1.3125,0.52522 -1.16495,-0.048 -1.4019,-0.28494 -0.60417,-0.60416 z M 4.44696,349.83629 c 4.83951,-0.18371 12.48951,-0.18277 17,0.002 4.5105,0.18485 0.5509,0.33516 -8.7991,0.33401 -9.35,-0.001 -13.0404,-0.1524 -8.2009,-0.3361 z m 58.4509,-0.002 c 7.8375,-0.16896 20.6625,-0.16896 28.5,0 7.8375,0.16896 1.425,0.3072 -14.25,0.3072 -15.675,0 -22.0875,-0.13824 -14.25,-0.3072 z m 69,0.005 c 3.9875,-0.18981 10.5125,-0.18981 14.5,0 3.9875,0.18982 0.725,0.34512 -7.25,0.34512 -7.975,0 -11.2375,-0.1553 -7.25,-0.34512 z M 14.96368,119.83265 c 10.6237,-0.1621 27.7237,-0.16186 38,5.4e-4 10.2763,0.16239 1.58418,0.29502 -19.31582,0.29473 -20.9,-3e-4 -29.30788,-0.13317 -18.68418,-0.29527 z m 99.43418,-14.94041 c 0.9625,-0.25152 2.5375,-0.25152 3.5,0 0.9625,0.25153 0.175,0.45733 -1.75,0.45733 -1.925,0 -2.7125,-0.2058 -1.75,-0.45733 z"
     id="path1723" /><path
     style="fill:#79a954"
     d="m -128.47397,536.58157 c 0,-6.325 0.16237,-8.9125 0.36082,-5.75 0.19845,3.1625 0.19845,8.3375 0,11.5 -0.19845,3.1625 -0.36082,0.575 -0.36082,-5.75 z m 239.70078,-12.58333 c 0.048,-1.16495 0.28494,-1.4019 0.60416,-0.60417 0.28887,0.72187 0.25335,1.58438 -0.0789,1.91667 -0.33229,0.33229 -0.56864,-0.25834 -0.52522,-1.3125 z"
     id="path1721" /><path
     style="fill:#75a854"
     d="m 111.30575,527.58157 c 0,-1.375 0.22698,-1.9375 0.50439,-1.25 0.27741,0.6875 0.27741,1.8125 0,2.5 -0.27741,0.6875 -0.50439,0.125 -0.50439,-1.25 z"
     id="path1719" /><path
     style="fill:#72a654"
     d="m 111.34281,532.08157 c 0.0204,-1.65 0.2445,-2.20394 0.49804,-1.23097 0.25354,0.97297 0.23687,2.32297 -0.0371,3 -0.27393,0.67703 -0.48137,-0.11903 -0.46099,-1.76903 z m 11.884,-9.08333 c 0.048,-1.16495 0.28494,-1.4019 0.60416,-0.60417 0.28887,0.72187 0.25335,1.58438 -0.0789,1.91667 -0.33229,0.33229 -0.56864,-0.25834 -0.52522,-1.3125 z M -4.57978,292.58157 c 0,-2.475 0.19502,-3.4875 0.43337,-2.25 0.23836,1.2375 0.23836,3.2625 0,4.5 -0.23835,1.2375 -0.43337,0.225 -0.43337,-2.25 z m 0.1222,-49.5 c 0.002,-7.7 0.15853,-10.71781 0.34883,-6.70625 0.1903,4.01156 0.18902,10.31156 -0.003,14 -0.19169,3.68844 -0.34739,0.40625 -0.34583,-7.29375 z"
     id="path1717" /><path
     style="fill:#6ea453"
     d="m 255.89786,535.87584 c 1.2375,-0.23836 3.2625,-0.23836 4.5,0 1.2375,0.23835 0.225,0.43337 -2.25,0.43337 -2.475,0 -3.4875,-0.19502 -2.25,-0.43337 z m 1.01791,-6.019 c 1.79735,-0.22256 4.49735,-0.21797 6,0.0102 1.50265,0.22818 0.0321,0.41027 -3.26791,0.40466 -3.3,-0.006 -4.52944,-0.1923 -2.73209,-0.41486 z m -133.68896,-1.8586 c 0.048,-1.16495 0.28494,-1.4019 0.60416,-0.60417 0.28887,0.72187 0.25335,1.58438 -0.0789,1.91667 -0.33229,0.33229 -0.56864,-0.25834 -0.52522,-1.3125 z m -6.26645,-43.09978 c 0.72187,-0.28887 1.58438,-0.25335 1.91667,0.0789 0.33229,0.33229 -0.25834,0.56864 -1.3125,0.52522 -1.16495,-0.048 -1.4019,-0.28494 -0.60417,-0.60416 z m 148,-39 c 0.72187,-0.28887 1.58438,-0.25335 1.91667,0.0789 0.33229,0.33229 -0.25834,0.56864 -1.3125,0.52522 -1.16495,-0.048 -1.4019,-0.28494 -0.60417,-0.60416 z m 49.45125,-15.03447 c 1.52006,-0.22986 3.77006,-0.22371 5,0.0136 1.22994,0.23736 -0.0137,0.42542 -2.76375,0.41792 -2.75,-0.008 -3.75631,-0.20172 -2.23625,-0.43157 z"
     id="path1715" /><path
     style="fill:#6ca353"
     d="m 123.22681,530.99824 c 0.048,-1.16495 0.28494,-1.4019 0.60416,-0.60417 0.28887,0.72187 0.25335,1.58438 -0.0789,1.91667 -0.33229,0.33229 -0.56864,-0.25834 -0.52522,-1.3125 z"
     id="path1713" /><path
     style="fill:#609f51"
     d="m 36.30575,546.58157 c 0,-1.375 0.22698,-1.9375 0.50439,-1.25 0.27741,0.6875 0.27741,1.8125 0,2.5 -0.27741,0.6875 -0.50439,0.125 -0.50439,-1.25 z m 280.26962,-23 c 0,-12.375 0.14355,-17.4375 0.319,-11.25 0.17544,6.1875 0.17544,16.3125 0,22.5 -0.17545,6.1875 -0.319,1.125 -0.319,-11.25 z m -68.66585,12.29274 c 1.24391,-0.23919 3.04391,-0.23011 4,0.0202 0.95609,0.25029 -0.0617,0.446 -2.26166,0.4349 -2.2,-0.0111 -2.98225,-0.21589 -1.73834,-0.45508 z m -1.49791,-6.01032 c 1.52006,-0.22986 3.77006,-0.22371 5,0.0136 1.22994,0.23736 -0.0138,0.42542 -2.76375,0.41792 -2.75,-0.008 -3.75631,-0.20172 -2.23625,-0.43157 z m -364.45125,-45.96553 c 0.72188,-0.28887 1.58438,-0.25335 1.91667,0.0789 0.33229,0.33229 -0.25834,0.56864 -1.3125,0.52522 -1.16495,-0.048 -1.4019,-0.28494 -0.60417,-0.60416 z M 47.53958,424.58157 c 0,-7.425 0.15742,-10.4625 0.34983,-6.75 0.19241,3.7125 0.19241,9.7875 0,13.5 -0.19241,3.7125 -0.34983,0.675 -0.34983,-6.75 z m 272.42078,9.31689 c 0.72187,-0.28887 1.58438,-0.25335 1.91667,0.0789 0.33229,0.33229 -0.25834,0.56864 -1.3125,0.52522 -1.16495,-0.048 -1.4019,-0.28494 -0.60417,-0.60416 z M 121.22681,203.99824 c 0.048,-1.16495 0.28494,-1.4019 0.60416,-0.60417 0.28887,0.72187 0.25335,1.58438 -0.0789,1.91667 -0.33229,0.33229 -0.56864,-0.25834 -0.52522,-1.3125 z m 76.19008,0.89034 c 0.97297,-0.25354 2.32297,-0.23687 3,0.0371 0.67703,0.27393 -0.11903,0.48137 -1.76903,0.46099 -1.65,-0.0204 -2.20394,-0.2445 -1.23097,-0.49804 z"
     id="path1711" /><path
     style="fill:#5d9e50"
     d="m 36.57262,523.58157 c 0,-11.825 0.14466,-16.6625 0.32145,-10.75 0.1768,5.9125 0.1768,15.5875 0,21.5 -0.17679,5.9125 -0.32145,1.075 -0.32145,-10.75 z m -190.42476,-37.94098 c 0,-0.51754 0.44485,-1.21592 0.98855,-1.55194 0.56686,-0.35034 0.7345,0.0511 0.39301,0.94098 -0.66479,1.73242 -1.38156,2.04939 -1.38156,0.61096 z M 84.46793,417.58157 c 0,-3.575 0.1815,-5.0375 0.40333,-3.25 0.22182,1.7875 0.22182,4.7125 0,6.5 -0.22183,1.7875 -0.40333,0.325 -0.40333,-3.25 z m -49.02041,-5 c 0,-3.025 0.18747,-4.2625 0.41659,-2.75 0.22913,1.5125 0.22913,3.9875 0,5.5 -0.22912,1.5125 -0.41659,0.275 -0.41659,-2.75 z"
     id="path1709" /><path
     style="fill:#599c50"
     d="m -26.77319,424.99824 c 0.048,-1.16495 0.28494,-1.4019 0.60416,-0.60417 0.28887,0.72187 0.25335,1.58438 -0.0789,1.91667 -0.3323,0.33229 -0.56864,-0.25834 -0.52522,-1.3125 z M 109.0203,203.83157 c -1.24387,-1.58606 -1.2085,-1.62143 0.37756,-0.37756 1.66575,1.30637 2.19548,2.12756 1.37244,2.12756 -0.20765,0 -0.99515,-0.7875 -1.75,-1.75 z"
     id="path1707" /><path
     style="fill:#52994f"
     d="m 241.89786,535.91929 c 0.6875,-0.27741 1.8125,-0.27741 2.5,0 0.6875,0.27741 0.125,0.50439 -1.25,0.50439 -1.375,0 -1.9375,-0.22698 -1.25,-0.50439 z m -363.9375,-52.02083 c 0.72188,-0.28887 1.58438,-0.25335 1.91667,0.0789 0.33229,0.33229 -0.25834,0.56864 -1.3125,0.52522 -1.16495,-0.048 -1.4019,-0.28494 -0.60417,-0.60416 z m 434.94916,-50.02415 c 1.24391,-0.23919 3.04391,-0.23011 4,0.0202 0.95609,0.25029 -0.0617,0.446 -2.26166,0.4349 -2.2,-0.0111 -2.98225,-0.21589 -1.73834,-0.45508 z m -41.94916,-9.97585 c 0.72187,-0.28887 1.58438,-0.25335 1.91667,0.0789 0.33229,0.33229 -0.25834,0.56864 -1.3125,0.52522 -1.16495,-0.048 -1.4019,-0.28494 -0.60417,-0.60416 z"
     id="path1705" /><path
     style="fill:#4e984e"
     d="m -31.69425,425.58157 c 0,-1.375 0.22698,-1.9375 0.50439,-1.25 0.27741,0.6875 0.27741,1.8125 0,2.5 -0.27741,0.6875 -0.50439,0.125 -0.50439,-1.25 z m 192.34211,-82 c 3.26557,-3.3 6.16239,-6 6.43739,-6 0.275,0 -2.17182,2.7 -5.43739,6 -3.26557,3.3 -6.16239,6 -6.43739,6 -0.275,0 2.17182,-2.7 5.43739,-6 z m -152.5,-134.37756 c 0,-0.20765 0.7875,-0.99515 1.75,-1.75 1.58606,-1.24387 1.62143,-1.2085 0.37756,0.37756 -1.30637,1.66575 -2.12756,2.19548 -2.12756,1.37244 z"
     id="path1703" /><path
     style="fill:#49964e"
     d="m -1.69425,423.58157 c 0,-1.375 0.22698,-1.9375 0.50439,-1.25 0.27741,0.6875 0.27741,1.8125 0,2.5 -0.27741,0.6875 -0.50439,0.125 -0.50439,-1.25 z"
     id="path1701" /><path
     style="fill:#45944d"
     d="m -119.03964,560.89846 c 0.72188,-0.28887 1.58438,-0.25335 1.91667,0.0789 0.33229,0.33229 -0.25834,0.56864 -1.3125,0.52522 -1.16495,-0.048 -1.4019,-0.28494 -0.60417,-0.60416 z m -6,-77 c 0.72188,-0.28887 1.58438,-0.25335 1.91667,0.0789 0.33229,0.33229 -0.25834,0.56864 -1.3125,0.52522 -1.16495,-0.048 -1.4019,-0.28494 -0.60417,-0.60416 z m 322,-38 c 0.72187,-0.28887 1.58438,-0.25335 1.91667,0.0789 0.33229,0.33229 -0.25834,0.56864 -1.3125,0.52522 -1.16495,-0.048 -1.4019,-0.28494 -0.60417,-0.60416 z m 6,0 c 0.72187,-0.28887 1.58438,-0.25335 1.91667,0.0789 0.33229,0.33229 -0.25834,0.56864 -1.3125,0.52522 -1.16495,-0.048 -1.4019,-0.28494 -0.60417,-0.60416 z M -1.62014,428.58157 c 0,-1.925 0.2058,-2.7125 0.45733,-1.75 0.25152,0.9625 0.25152,2.5375 0,3.5 -0.25153,0.9625 -0.45733,0.175 -0.45733,-1.75 z m 87.518,-4.66228 c 0.6875,-0.27741 1.8125,-0.27741 2.5,0 0.6875,0.27741 0.125,0.50439 -1.25,0.50439 -1.375,0 -1.9375,-0.22698 -1.25,-0.50439 z m -51.5,-74.07276 c 2.6125,-0.206 6.8875,-0.206 9.5,0 2.6125,0.206 0.475,0.37454 -4.75,0.37454 -5.225,0 -7.3625,-0.16854 -4.75,-0.37454 z m 73.5625,0.0519 c 0.72187,-0.28887 1.58438,-0.25335 1.91667,0.0789 0.33229,0.33229 -0.25834,0.56864 -1.3125,0.52522 -1.16495,-0.048 -1.4019,-0.28494 -0.60417,-0.60416 z m 33,-208 c 0.72187,-0.28887 1.58438,-0.25335 1.91667,0.0789 0.33229,0.33229 -0.25834,0.56864 -1.3125,0.52522 -1.16495,-0.048 -1.4019,-0.28494 -0.60417,-0.60416 z m 7,-11 c 0.72187,-0.28887 1.58438,-0.25335 1.91667,0.0789 0.33229,0.33229 -0.25834,0.56864 -1.3125,0.52522 -1.16495,-0.048 -1.4019,-0.28494 -0.60417,-0.60416 z"
     id="path1699" /><path
     style="fill:#39904c"
     d="m -122.03964,560.89846 c 0.72188,-0.28887 1.58438,-0.25335 1.91667,0.0789 0.33229,0.33229 -0.25834,0.56864 -1.3125,0.52522 -1.16495,-0.048 -1.4019,-0.28494 -0.60417,-0.60416 z m 176.97669,-9.0583 c 3.45905,-0.19583 8.85905,-0.19422 12,0.004 3.14094,0.19781 0.31081,0.35803 -6.28919,0.35606 -6.6,-0.002 -9.16987,-0.16382 -5.71081,-0.35965 z m 276.97247,-26.96585 c 1.24391,-0.23919 3.04391,-0.23011 4,0.0202 0.95609,0.25029 -0.0617,0.446 -2.26166,0.4349 -2.2,-0.0111 -2.98225,-0.21589 -1.73834,-0.45508 z m -460.94916,-40.97585 c 0.72188,-0.28887 1.58438,-0.25335 1.91667,0.0789 0.33229,0.33229 -0.25834,0.56864 -1.3125,0.52522 -1.16495,-0.048 -1.4019,-0.28494 -0.60417,-0.60416 z m 239.45653,-4.00988 c 0.97297,-0.25354 2.32297,-0.23687 3,0.0371 0.67703,0.27393 -0.11903,0.48137 -1.76903,0.46099 -1.65,-0.0204 -2.20394,-0.2445 -1.23097,-0.49804 z m 89.54347,-33.99012 c 0.72187,-0.28887 1.58438,-0.25335 1.91667,0.0789 0.33229,0.33229 -0.25834,0.56864 -1.3125,0.52522 -1.16495,-0.048 -1.4019,-0.28494 -0.60417,-0.60416 z m 37,-39 c 0.72187,-0.28887 1.58438,-0.25335 1.91667,0.0789 0.33229,0.33229 -0.25834,0.56864 -1.3125,0.52522 -1.16495,-0.048 -1.4019,-0.28494 -0.60417,-0.60416 z m -124.5625,-57.03314 c 1.5125,-0.22913 3.9875,-0.22913 5.5,0 1.5125,0.22912 0.275,0.41659 -2.75,0.41659 -3.025,0 -4.2625,-0.18747 -2.75,-0.41659 z"
     id="path1697" /><path
     style="fill:#318c4b"
     d="m 371.0203,551.83157 c -1.24387,-1.58606 -1.2085,-1.62143 0.37756,-0.37756 0.9625,0.75485 1.75,1.54235 1.75,1.75 0,0.82304 -0.82119,0.29331 -2.12756,-1.37244 z m -167.87244,-235.75 c 1.29175,-1.375 2.57363,-2.5 2.84863,-2.5 0.275,0 -0.55688,1.125 -1.84863,2.5 -1.29175,1.375 -2.57363,2.5 -2.84863,2.5 -0.275,0 0.55688,-1.125 1.84863,-2.5 z"
     id="path1695" /><path
     style="fill:#2f8c4a"
     d="m 198.64786,320.58157 c 0.99549,-1.1 2.03498,-2 2.30998,-2 0.275,0 -0.31449,0.9 -1.30998,2 -0.99549,1.1 -2.03498,2 -2.30998,2 -0.275,0 0.31449,-0.9 1.30998,-2 z"
     id="path1693" /><path
     style="fill:#2c8a4a"
     d="m -106.9797,440.83157 c -1.24387,-1.58606 -1.2085,-1.62143 0.37756,-0.37756 1.66575,1.30637 2.19548,2.12756 1.37244,2.12756 -0.20765,0 -0.99515,-0.7875 -1.75,-1.75 z m 150.62756,-108.25 c 0.99549,-1.1 2.03498,-2 2.30998,-2 0.275,0 -0.31449,0.9 -1.30998,2 -0.99549,1.1 -2.03498,2 -2.30998,2 -0.275,0 0.31449,-0.9 1.30998,-2 z"
     id="path1691" /><path
     style="fill:#2a894a"
     d="M -201.85214,383.13849 V 92.69541 l 22.75,-15.21378 c 12.5125,-8.36758 35.575,-23.84156 51.25,-34.38662 15.675,-10.54506 43.8,-29.45266 62.5,-42.01688 18.7,-12.56422 46.15,-31.01291 61,-40.997087 14.85,-9.984177 47.49758,-31.914456 72.55017,-48.733953 l 45.55017,-30.58091 8.94983,6.02387 c 4.92241,3.31313 28.74983,19.323619 52.94983,35.578867 24.2,16.255248 56.15,37.726658 71,47.714246 14.85,9.987587 41.625,27.986867 59.5,39.998407 17.875,12.01154 44.65,30.01386 59.5,40.00517 14.85,9.99131 35.2125,23.66847 45.25,30.39368 l 18.25,12.22767 v 290.43674 290.43674 h -315.5 -315.5 z M -12.49657,559.19603 C 1.89179,552.15646 10.22078,535.35617 8.78716,516.26491 8.0089,505.90093 4.53635,498.18486 -2.22922,491.78627 c -7.26574,-6.87164 -12.66617,-8.7047 -25.64514,-8.7047 -9.87072,0 -10.93474,0.20312 -17.18482,3.28057 -8.11935,3.99786 -14.77666,11.04467 -17.96661,19.0178 -1.92488,4.81112 -2.28469,7.57584 -2.30375,17.70163 -0.0215,11.42598 0.12752,12.31093 3.11566,18.5 7.21573,14.9453 18.28047,21.35641 35.59277,20.62309 6.90258,-0.29238 9.86055,-0.92245 14.12454,-3.00863 z m -25.55292,-7.52466 c -5.82681,-3.69526 -10.26437,-12.30453 -11.90139,-23.0898 -3.43589,-22.63694 5.36639,-37.90944 21.88858,-37.97804 14.34581,-0.0596 21.48862,11.16689 21.61847,33.97804 0.0622,10.92383 -1.76419,17.54971 -6.38148,23.15128 -6.19084,7.51056 -16.94411,9.18958 -25.22418,3.93852 z m 230.05718,-0.85489 c 9.46987,-25.48912 21.40983,-54.92593 23.71472,-58.46633 1.33608,-2.05229 3.55339,-4.01357 4.92735,-4.35841 1.39501,-0.35013 2.4981,-1.35187 2.4981,-2.26858 0,-1.43794 -1.61276,-1.64159 -13,-1.64159 -10.89341,0 -12.99835,0.24307 -12.98983,1.5 0.006,0.825 1.80547,2.25403 3.99972,3.17562 l 3.98956,1.67562 -4.48675,12.82438 c -2.46771,7.05341 -6.21363,17.25076 -8.32428,22.66079 l -3.83754,9.83641 -8.67544,-21.55115 c -4.77149,-11.85313 -8.67544,-22.24374 -8.67544,-23.09025 0,-0.97914 1.63719,-1.97698 4.5,-2.74266 2.86834,-0.76717 4.50002,-1.7629 4.50007,-2.74616 6e-5,-1.32964 -2.34677,-1.5426 -16.99938,-1.5426 -14.44819,0 -16.99801,0.22512 -16.98989,1.5 0.005,0.825 1.77368,2.24072 3.92985,3.14605 2.98045,1.25142 4.50971,2.80974 6.37882,6.5 2.98986,5.903 16.05829,38.65914 21.64024,54.24149 4.85796,13.56125 4.60825,13.11625 7.34931,13.09737 1.87896,-0.0129 2.81186,-1.68626 6.55081,-11.75 z m -289.55884,7.41559 c 7.51971,-3.69115 10.92267,-8.59442 11.49953,-16.56949 0.68872,-9.52147 -4.31702,-16.44033 -14.30052,-19.76596 l -3,-0.99934 4.15547,-2.12995 c 2.28551,-1.17148 5.09649,-3.32626 6.24661,-4.78841 5.7169,-7.26785 4.47166,-18.81138 -2.6321,-24.39989 -6.54505,-5.14898 -8.15265,-5.40668 -34.01963,-5.45354 -21.81858,-0.0395 -24.24968,0.12036 -24.25,1.59479 -2.3e-4,1.07854 1.18601,1.86127 3.47021,2.28979 1.90881,0.35809 4.85879,1.81919 6.5555,3.24688 l 3.08493,2.5958 -0.30549,28.95407 -0.3055,28.95406 -2.34716,1.89931 c -1.29094,1.04463 -4.10344,2.42551 -6.25,3.06864 -2.41304,0.72296 -3.90271,1.77691 -3.9025,2.76103 3.1e-4,1.41361 2.82565,1.5916 25.25,1.59071 l 25.24966,-10e-4 z m -30.30099,-18.7759 v -14.1254 l 8.25,0.45274 c 14.07264,0.77228 20.74612,6.33352 19.42474,16.1873 -1.01438,7.56439 -8.75947,11.61076 -22.22396,11.61076 h -5.45078 z m 0,-35.23171 v -12.64289 h 7.59887 c 12.28047,0 16.7882,3.34989 16.65177,12.37466 -0.12992,8.59395 -4.01466,11.52412 -16.40419,12.37332 l -7.84645,0.53781 z m 212.23469,55.86952 c 0.40408,-0.55683 0.74158,-5.17491 0.75,-10.26241 0.0139,-8.41202 -0.15605,-9.25 -1.87628,-9.25 -1.16767,0 -2.12433,0.92728 -2.49971,2.42293 -0.33446,1.33261 -1.77325,3.80761 -3.1973,5.5 l -2.58919,3.07707 H 62.01569 49.0613 l 0.29328,-28.89665 c 0.33422,-32.93092 0.0842,-31.96791 8.88618,-34.2238 3.24359,-0.8313 4.90698,-1.78681 4.90673,-2.8186 -3.2e-4,-1.36122 -2.49544,-1.56095 -19.50024,-1.56095 -17.16601,0 -19.49984,0.19051 -19.49963,1.59171 1.5e-4,1.00869 1.55697,2.05212 4.25024,2.84864 8.13645,2.40634 7.75,0.72879 7.75,33.64206 v 29.27243 l -2.56248,2.01565 c -1.40937,1.10861 -4.10937,2.52617 -6,3.15013 -2.09436,0.6912 -3.43745,1.78797 -3.43735,2.80693 1.5e-4,1.52551 2.61403,1.67354 29.75,1.68486 18.94026,0.008 30.01678,-0.35545 30.48452,-1 z m 51.5521,-0.86179 c -0.17606,-1.13532 -1.7926,-2.36457 -4.18682,-3.18374 -7.00751,-2.39756 -7.58753,-5.1533 -7.59439,-36.08202 -0.005,-23.82418 0.1,-25.24934 2.04807,-27.72593 1.1295,-1.43594 3.8295,-3.14285 6,-3.79315 2.44705,-0.73315 3.94635,-1.78708 3.94635,-2.77407 0,-1.39826 -2.24847,-1.59171 -18.5,-1.59171 -15.80973,0 -18.5,0.21898 -18.5,1.50585 0,0.83662 2.2456,2.53604 5.05284,3.82389 3.37336,1.54756 5.38726,3.19762 6.05896,4.96431 0.61237,1.61066 0.8852,12.90301 0.69715,28.8552 -0.29205,24.77495 -0.4235,26.36327 -2.40261,29.02984 -1.15152,1.5515 -3.62652,3.32733 -5.5,3.94629 -2.03482,0.67226 -3.52181,1.88017 -3.69313,3 -0.27168,1.77583 0.69197,1.87462 18.28679,1.87462 17.50605,0 18.5571,-0.10629 18.28679,-1.84938 z m 108,-0.0723 c -0.18854,-1.26331 -1.74283,-2.40531 -4.53679,-3.33334 -2.3375,-0.77641 -4.25242,-1.93666 -4.25538,-2.57832 -0.003,-0.64167 1.39763,-4.65417 3.11241,-8.91667 l 3.11777,-7.75 h 13.30548 13.30548 l 2.58212,7.75341 c 1.42017,4.26437 2.58212,8.23537 2.58212,8.82443 0,0.58906 -2.1375,1.73288 -4.75,2.54182 -3.31037,1.02503 -4.83677,2.06324 -5.03628,3.42557 -0.27505,1.87802 0.42185,1.95477 17.75033,1.95477 17.84243,0 18.0366,-0.0234 18.03628,-2.17054 -2.4e-4,-1.57576 -0.78539,-2.34298 -2.8652,-2.79978 -1.57567,-0.34608 -3.74932,-1.45323 -4.83033,-2.46034 -1.08101,-1.00712 -8.40911,-17.63472 -16.28467,-36.95023 l -14.3192,-35.1191 h -3.17756 -3.17756 l -14.8344,34.75 c -8.15892,19.1125 -15.29413,35.34539 -15.85601,36.07309 -0.56188,0.7277 -2.73921,2.19934 -4.8385,3.27032 -2.20087,1.1228 -3.8169,2.67956 -3.8169,3.67691 0,1.56025 1.42396,1.72968 14.53679,1.72968 13.77211,0 14.5217,-0.10109 14.25,-1.92167 z m 2.33124,-34.82832 c 1.14886,-2.8875 3.464,-8.7408 5.14474,-13.00734 1.68074,-4.26653 3.22298,-7.59024 3.4272,-7.38603 0.20422,0.20422 2.55295,6.05752 5.2194,13.00734 l 4.8481,12.63603 h -10.36414 -10.36415 z m 96.88214,35.15829 c -1.1e-4,-1.01063 -1.5517,-2.0461 -4.25017,-2.83639 -8.84804,-2.59127 -8.75,-2.39413 -8.75,-17.59495 v -13.47695 h 3.50207 c 3.12908,0 3.98013,0.6494 7.99074,6.09744 2.46878,3.35359 7.73229,11.39713 11.69671,17.87453 l 7.20802,11.77709 10.30123,-0.0833 c 8.92248,-0.0722 10.30123,-0.30686 10.30123,-1.75324 0,-0.91843 -1.35763,-2.23223 -3.01696,-2.91954 -4.55239,-1.88567 -12.12246,-10.7909 -19.34354,-22.75526 l -6.47178,-10.72287 4.4118,-1.28642 c 6.43591,-1.87662 11.00071,-6.88942 12.39655,-13.61318 2.10727,-10.15065 -1.7001,-17.50697 -11.20299,-21.6456 -5.00007,-2.17759 -6.52861,-2.30097 -29.52267,-2.38307 -22.46101,-0.0802 -24.24961,0.0425 -24.25,1.66342 -2.3e-4,0.99179 0.7578,1.75952 1.74959,1.77196 0.9625,0.0121 3.6625,0.89008 6,1.95111 l 4.25,1.92915 v 30.3939 c 0,34.02501 0.28489,32.68198 -7.38172,34.79883 -2.3504,0.64898 -3.61818,1.5958 -3.61799,2.70205 2.6e-4,1.54423 1.7716,1.703 19.00017,1.703 16.70874,0 18.99986,-0.19194 18.99971,-1.59171 z m -13.00017,-54.76007 v -13.14822 l 6.75,0.006 c 13.4924,0.0111 18.25,3.24547 18.25,12.40677 0,9.00664 -4.19703,12.27988 -17.01278,13.26815 l -7.98722,0.61551 z M 125.07564,474.33157 c 10.8579,-6.51463 12.7573,-8.77152 10.73651,-12.75727 -3.47833,-6.86057 -7.65887,-5.24798 -18.40849,7.10084 -4.81569,5.5321 -8.9058,10.47419 -9.08913,10.9824 -0.18334,0.50822 1.16913,0.92403 3.00547,0.92403 2.3178,0 6.52425,-1.91124 13.75564,-6.25 z M -81.10214,446.0049 c 2.00353,-0.41089 2.25,-1.06182 2.25,-5.94238 0,-6.34698 -1.65324,-7.2601 -4,-2.20931 -1.37938,2.96876 -1.92587,3.25279 -6.79614,3.53222 -4.8649,0.27912 -5.57007,0.0299 -8.66028,-3.06028 -2.48182,-2.48182 -3.55249,-4.62021 -4.08232,-8.15338 -1.44098,-9.60911 3.01173,-16.93875 11.0197,-18.13962 5.12334,-0.76829 8.25036,0.63072 9.11564,4.07828 0.34112,1.35913 1.24643,2.47114 2.01181,2.47114 1.01952,0 1.39159,-1.46543 1.39159,-5.48095 0,-5.06098 -0.19815,-5.53068 -2.58604,-6.13 -1.42233,-0.35698 -5.45442,-0.41881 -8.9602,-0.1374 -13.72622,1.10181 -22.76294,11.1802 -21.07389,23.50312 1.78757,13.04177 13.56087,19.11586 30.37013,15.66856 z m 33.32867,-0.74653 c 3.30789,-1.74925 5.09718,-3.66389 7.24262,-7.75 2.51811,-4.79586 2.80844,-6.26381 2.49718,-12.62607 -0.25908,-5.29556 -0.89295,-7.92352 -2.39713,-9.93821 -4.92907,-6.60195 -11.6171,-8.99786 -20.26081,-7.25821 -14.77449,2.97355 -20.13079,22.17468 -9.47578,33.96851 5.65142,6.25545 14.64336,7.70257 22.39392,3.60398 z m -11.98227,-2.94154 c -5.62029,-2.88838 -8.64718,-12.37925 -6.83714,-21.43802 1.60593,-8.0373 10.16374,-11.89875 16.07144,-7.25175 3.07699,2.42036 4.65604,7.4325 4.66372,14.80338 0.007,6.99196 -2.40909,12.00862 -6.63462,13.77416 -3.98797,1.66628 -4.23215,1.67005 -7.2634,0.11223 z m 82.28133,4.17689 c 5.80454,-1.6117 8.62227,-4.92678 8.62227,-10.14419 0,-5.66417 -1.78663,-8.00396 -9.08004,-11.8913 -6.93061,-3.69398 -8.6433,-5.99369 -7.05685,-9.47557 2.15006,-4.71886 8.93024,-4.50463 11.06736,0.34969 2.02983,4.61065 3.06953,4.03069 3.06953,-1.71224 v -4.96145 l -4.11262,-1.10742 c -5.61594,-1.51221 -11.24748,-0.36985 -14.87315,3.01703 -2.47103,2.3083 -3.01423,3.61049 -3.01423,7.22595 0,5.27094 1.48826,7.11674 9.81819,12.17691 6.9611,4.22864 8.11814,6.76502 4.66247,10.22068 -4.36018,4.36019 -11.48066,2.38686 -11.48066,-3.18167 0,-1.39065 -0.58601,-2.42857 -1.37117,-2.42857 -1.55436,0 -3.26725,9.79266 -1.93266,11.0491 2.08421,1.96219 10.12852,2.40491 15.68156,0.86305 z m 222.23836,-0.82527 c 13.73872,-6.239 15.11914,-29.95242 2.13818,-36.73029 -4.10948,-2.14571 -14.24943,-2.18938 -18.3079,-0.0788 -6.57064,3.41692 -10.44637,10.36311 -10.44637,18.72221 0,8.81887 3.53651,14.92162 10.5,18.11927 5.11326,2.34802 10.89988,2.33639 16.11609,-0.0324 z m -11.19513,-3.48317 c -6.04321,-2.67593 -9.45392,-16.5173 -5.91025,-23.98504 3.84489,-8.1025 14.27107,-8.81299 17.87509,-1.21809 6.63186,13.97561 -1.00264,30.05718 -11.96484,25.20313 z m -254.42096,3.18733 c 0,-0.4623 -1.125,-1.26827 -2.5,-1.79104 -2.47573,-0.94127 -2.49949,-1.06482 -2.44755,-12.72525 0.0507,-11.38791 0.10822,-11.69346 1.75,-9.30041 0.93365,1.36088 5.44831,7.54838 10.03256,13.75 6.58019,8.90171 8.83861,11.27566 10.72693,11.27566 h 2.39191 l 0.27308,-17.75 c 0.26652,-17.32454 0.327,-17.77366 2.52307,-18.73713 4.44941,-1.95206 2.33914,-3.06795 -5.74946,-3.04026 -4.39971,0.0151 -7.99971,0.23549 -8,0.48983 -3e-4,0.25433 1.14414,1.37933 2.5432,2.5 2.45591,1.96721 2.5336,2.37609 2.25,11.84227 l -0.29374,9.80471 -3.98327,-5.30471 c -2.1908,-2.91759 -6.05242,-8.38001 -8.58137,-12.13872 l -4.59809,-6.834 -6.169,-0.166 c -6.35337,-0.17095 -8.02634,1.04457 -3.91827,2.84688 2.16791,0.95112 2.2601,1.52609 2.52686,15.75998 0.27504,14.67535 0.26019,14.78831 -2.25,17.11467 -1.38977,1.288 -2.52686,2.54482 -2.52686,2.79294 0,0.24812 3.6,0.45112 8,0.45112 4.4,0 8,-0.37824 8,-0.84054 z m 81,-0.36388 c 0,-0.66569 -1.07123,-1.47921 -2.38051,-1.80781 -3.19164,-0.80105 -3.58984,-2.83628 -3.60584,-18.42972 l -0.01365,-13.31036 3.75,0.31036 c 3.11252,0.25761 4.00499,0.85918 5.25,3.53873 0.825,1.77559 1.8375,3.23809 2.25,3.25 0.4125,0.0119 0.75,-2.56586 0.75,-5.72836 v -5.75 h -15.5 -15.5 v 5.75 c 0,6.5318 1.29275,7.37845 3.43555,2.25 1.28488,-3.07515 1.8966,-3.5 5.03947,-3.5 h 3.57707 l -0.27604,15.23781 -0.27605,15.23781 -2.75,1.31676 c -1.5125,0.72421 -2.75,1.68068 -2.75,2.12547 0,0.4448 4.275,0.78868 9.5,0.76418 6.74277,-0.0316 9.5,-0.39582 9.5,-1.25487 z m 31,-0.0793 c 0,-0.6337 -1.35,-1.62279 -3,-2.19799 -2.95086,-1.02867 -3,-1.16131 -3,-8.09782 0,-5.37115 0.33302,-7.05202 1.39718,-7.05202 0.76845,0 4.09661,4.16704 7.39592,9.2601 l 5.99873,9.2601 5.10099,-0.0101 c 2.80554,-0.006 5.10238,-0.37665 5.10408,-0.82466 0.002,-0.44801 -1.41442,-2.00733 -3.14696,-3.46516 -3.20065,-2.6932 -9.84994,-12.26029 -9.84994,-14.17227 0,-0.57642 0.59656,-1.04804 1.32569,-1.04804 1.7353,0 5.2598,-3.89142 6.13389,-6.77247 1.18797,-3.91557 -0.40364,-8.2225 -3.80501,-10.29652 -2.69274,-1.64193 -5.09439,-1.92408 -16.40457,-1.92727 -12.5528,-0.004 -16.58383,0.94271 -10.51002,2.46714 1.50699,0.37823 3.0751,1.21451 3.48469,1.8584 0.88964,1.39857 1.00866,25.19804 0.14218,28.43166 -0.33755,1.25973 -1.65999,2.52551 -2.98634,2.85841 -1.30928,0.3286 -2.38051,1.11118 -2.38051,1.73906 0,0.77534 3.04781,1.14159 9.5,1.14159 6.50315,0 9.5,-0.36346 9.5,-1.15217 z m -6,-27.47788 v -6.13005 l 4.68919,0.52853 c 10.31559,1.16269 9.84899,11.73154 -0.51793,11.73154 h -4.17126 v -6.13005 z m 54.02893,26.60387 c 4.33473,-3.92288 5.22362,-7.22499 5.36364,-19.92529 0.13557,-12.29641 0.62575,-14.54856 3.16645,-14.54856 0.79254,0 1.44098,-0.72314 1.44098,-1.60699 0,-1.05452 -0.5438,-1.39831 -1.58179,-1 -0.86998,0.33385 -4.46998,0.60699 -8,0.60699 -6.4566,0 -8.52694,1.25393 -3.96201,2.39965 3.20314,0.80394 3.96266,4.8026 3.30401,17.39475 -0.46347,8.86059 -0.70469,9.76109 -3.18658,11.89593 -2.94803,2.53578 -6.15049,2.91522 -9.95899,1.17995 -4.12064,-1.87749 -5.18848,-6.94371 -4.77879,-22.6723 0.15746,-6.04529 0.28636,-6.34462 3.16415,-7.34782 5.45696,-1.90231 3.12904,-2.85016 -7,-2.85016 -10.13612,0 -12.45687,0.94788 -6.98823,2.85426 l 3.01178,1.04991 -0.091,12.47982 c -0.10816,14.83335 1.11228,18.55756 6.8954,21.04144 5.22095,2.24243 16.27709,1.69448 19.20099,-0.95161 z m 42.3645,1.46732 c 0.8464,-0.84831 -0.54991,-10.94117 -1.51367,-10.94117 -0.46291,0 -1.12699,1.13687 -1.47574,2.52638 -0.78253,3.11788 -3.17299,4.47362 -7.88794,4.47362 -8.02323,0 -12.51913,-5.44406 -12.51234,-15.15113 0.005,-6.61266 2.67718,-11.39978 7.48604,-13.40905 6.47159,-2.704 11.78758,-1.45517 12.91424,3.0338 1.18946,4.73916 2.70485,2.70021 2.39588,-3.22362 l -0.2999,-5.75 -6,-0.30862 c -7.65482,-0.39373 -13.309,1.20252 -18.02287,5.08808 -11.74416,9.68053 -9.22719,27.8505 4.66803,33.69849 2.40028,1.01018 19.23413,0.97959 20.24827,-0.0368 z m 28.60657,0.094 c 0,-0.53065 -1.0125,-1.49801 -2.25,-2.1497 -1.2375,-0.65169 -2.58061,-1.68002 -2.98469,-2.28518 -0.40408,-0.60517 -0.74158,-7.53996 -0.75,-15.41067 l -0.0153,-14.31036 3.75,0.31036 c 3.13922,0.25982 3.98299,0.83971 5.18047,3.56037 2.0797,4.72506 3.06953,3.9995 3.06953,-2.25 v -5.5 h -15.5 -15.5 v 5.5 c 0,3.025 0.36665,5.5 0.81479,5.5 0.44813,0 1.56585,-1.575 2.48382,-3.5 1.44355,-3.02716 2.14758,-3.5 5.21126,-3.5 h 3.54222 l -0.27604,15.23781 -0.27605,15.23781 -2.75,1.31676 c -4.8603,2.3272 -3.00758,3.20762 6.75,3.20762 5.43571,0 9.5,-0.41277 9.5,-0.96482 z m 67,0.14529 c 0,-0.45075 -1.4625,-1.46325 -3.25,-2.25 -3.15243,-1.38752 -3.25888,-1.63312 -3.54569,-8.18047 -0.428,-9.77041 1.68094,-9.24728 9.08988,2.25477 l 5.79418,8.99523 h 5.45582 c 3.00069,0 5.45581,-0.36537 5.45581,-0.81194 0,-0.44657 -1.38547,-1.83627 -3.07882,-3.08822 -2.78186,-2.05671 -10.92118,-13.34505 -10.92118,-15.14647 0,-0.4051 1.11682,-1.01686 2.48181,-1.35945 4.35861,-1.09394 6.96546,-9.02116 4.48855,-13.64931 -2.11226,-3.94679 -6.13224,-4.94461 -19.9207,-4.94461 -7.17731,0 -13.03992,0.3375 -13.02802,0.75 0.0119,0.4125 1.47441,1.425 3.25,2.25 l 3.22836,1.5 0.28849,13 c 0.33784,15.22357 -0.0107,17.1885 -3.31608,18.69452 -4.53739,2.06738 -2.55694,2.80548 7.52759,2.80548 5.5,0 10,-0.36879 10,-0.81953 z m -7,-28.18047 v -6 h 3.77749 c 4.97191,0 8.22251,2.33312 8.22251,5.90172 0,3.8915 -2.83298,6.09828 -7.82874,6.09828 h -4.17126 z m 42,27.33333 c 0,-0.73333 -0.3375,-1.34022 -0.75,-1.34864 -0.4125,-0.008 -1.36171,-0.40289 -2.10935,-0.8766 -1.13749,-0.72072 -1.1431,-1.45932 -0.0344,-4.52546 l 1.32499,-3.66418 6.43741,0.29078 6.43741,0.29077 1.29272,3.74456 c 1.24635,3.61023 1.20499,3.76658 -1.15304,4.35841 -1.34517,0.33761 -2.44577,1.14338 -2.44577,1.79059 0,0.80794 2.82068,1.20726 9,1.27414 6.67524,0.0722 9,-0.23172 9,-1.17674 0,-0.70078 -1.07564,-1.54411 -2.39032,-1.87407 -2.0258,-0.50845 -3.49072,-3.34616 -9.60628,-18.60841 -5.26446,-13.13827 -7.66153,-18.00848 -8.86357,-18.00848 -1.18668,0 -3.72379,4.92418 -9.06873,17.60118 -5.64391,13.38609 -7.97788,17.85487 -9.74608,18.66052 -4.60711,2.09913 -2.62246,3.40497 5.17501,3.40497 5.58333,0 7.5,-0.34074 7.5,-1.33334 z m 2.27237,-19.87622 c 2.13274,-5.78962 2.77568,-5.92671 4.48887,-0.95711 0.56881,1.65 1.35337,3.7875 1.74347,4.75 0.61289,1.5122 0.0989,1.75 -3.78246,1.75 h -4.49173 z m -186.27237,-46.4938 c 7.975,-5.31879 20.0153,-13.7864 26.75622,-18.81692 l 12.25622,-9.14639 h 28.49378 28.49378 v -27.8562 -27.8562 l 3.38604,-4.43456 c 9.85363,-12.9049 19.49111,-29.95123 23.37978,-41.35304 4.64006,-13.60493 5.37549,-27.43935 1.90077,-35.75554 -3.6009,-8.61816 -12.59135,-14.86967 -23.4574,-16.3111 l -5.20919,-0.69102 v -38.37117 -38.37117 h -33.15561 -33.15561 l -3.33883,-2.54665 c -5.44526,-4.1533 -17.39035,-9.35846 -25.38513,-11.06174 -16.76005,-3.57073 -39.38278,1.33472 -54.11919,11.73505 -2.48369,1.75288 -5.13511,1.87334 -41.23342,1.87334 H -4.81898 l -0.28275,55.25 c -0.21461,41.93606 -0.6109,56.78499 -1.64454,61.61987 -1.13556,5.31161 -1.14314,7.47137 -0.0456,13 0.72389,3.64657 1.46136,13.60513 1.63882,22.13013 l 0.32266,15.5 -6.50214,5.25138 c -21.90365,17.69024 -21.98604,37.86699 -0.22007,53.89018 l 5.92052,4.35844 63.63999,-0.19268 c 35.00199,-0.10597 60.76375,-0.3541 57.24834,-0.55139 l -6.39165,-0.35872 9.09002,-5.87846 c 21.42234,-13.85369 32.24048,-31.28317 29.32968,-47.25405 -0.52774,-2.89559 -0.78212,-5.4444 -0.5653,-5.66403 0.21682,-0.21963 1.80827,2.62244 3.53656,6.3157 4.35862,9.31416 4.3686,16.83177 0.0346,26.09321 -3.55673,7.60057 -12.15267,16.7443 -21.64231,23.02153 l -6,3.96889 14.96232,0.5 14.96232,0.5 -12.48501,11.5 c -6.86676,6.325 -16.1873,14.64656 -20.71232,18.49235 -4.52502,3.8458 -8.22731,7.35986 -8.22731,7.80902 0,1.02263 -0.38814,1.25866 17,-10.33806 z m -96.97218,-29.7133 c 0.10121,-2.7284 18.13904,-21.98043 26.03934,-27.79216 6.96719,-5.12529 16.25174,-10.11908 24.03039,-12.92499 9.10227,-3.28337 9.3924,-3.19981 2.75901,0.7946 -8.27582,4.98344 -9.79312,6.15762 -16.72246,12.94087 -7.12366,6.97347 -13.78087,15.85146 -17.23294,22.98168 l -2.29969,4.75 h -8.30074 c -4.5654,0 -8.28821,-0.3375 -8.27291,-0.75 z m 136.10489,-11 c 21.30309,-21.94039 40.0977,-45.33107 51.00202,-63.47417 l 4.86527,-8.09505 v 13.80662 13.80662 l -3.71646,4.60299 c -7.0252,8.70101 -28.79919,30.35881 -40.9427,40.72422 -12.06471,10.29815 -12.19979,10.37877 -17.388,10.37877 h -5.22883 z m -176.34433,3.11148 c -4.28454,-9.15587 -4.9072,-18.66193 -1.84597,-28.18236 1.21186,-3.7689 3.06761,-8.16352 4.1239,-9.76583 l 1.92051,-2.91329 0.007,23.75 c 0.004,13.0625 -0.24205,23.75 -0.54595,23.75 -0.3039,0 -1.95048,-2.98733 -3.65908,-6.63852 z m 113.71162,-42.86363 c -7.96349,-2.81581 -13.3973,-12.06404 -11.90536,-20.26267 3.2093,-17.63592 23.39772,-32.24437 39.09746,-28.29113 8.9683,2.25825 14.3296,8.73796 14.28594,17.26611 -0.0182,3.55847 -3.05821,12.78984 -4.21184,12.78984 -0.18237,0 -0.18041,-3.0375 0.004,-6.75 0.27171,-5.45944 -0.0549,-7.37313 -1.70817,-10.00914 -3.08182,-4.9137 -7.60512,-7.23274 -14.11604,-7.23712 -21.70798,-0.0146 -35.80379,29.39422 -19.68527,41.07042 4.4801,3.24536 4.14865,3.51331 -1.76107,1.42369 z m -108.5,-6.49304 c 0,-3.78217 0.18842,-3.98338 8.25,-8.81 11.34403,-6.79188 14.12533,-8.01517 9.25,-4.06838 -2.2,1.78099 -7.0375,6.27809 -10.75,9.99355 l -6.75,6.75539 z m 39.06398,-22.90733 c 4.15348,-9.63409 8.40498,-23.37342 9.5073,-30.72427 1.21985,-8.13449 2.73888,-2.26132 2.21719,8.57252 -0.36917,7.66652 -1.0137,10.86648 -3.11178,15.44929 -2.74126,5.9877 -6.15347,10.61897 -10.12618,13.74391 -2.09643,1.64905 -1.96044,1.01635 1.51347,-7.04145 z m 34.1961,5.44343 c -5.1565,-2.40072 -12.25999,-7.42951 -12.26005,-8.67928 -2e-5,-0.3511 2.58747,0.42572 5.74997,1.72627 3.1625,1.30055 7.48546,2.37531 9.60658,2.38836 3.44392,0.0212 4.65937,-0.75202 11.35914,-7.22626 11.89624,-11.49577 20.32752,-24.43519 25.3239,-38.86441 l 2.74794,-7.93587 -8.66459,-8.72486 C 98.5053,202.00776 92.8156,195.22727 90.62705,191.73868 l -3.97919,-6.34289 -8.66231,0.52227 c -6.18251,0.37276 -11.67083,1.52899 -19.17149,4.03886 -31.45673,10.52608 -52.81555,28.93364 -57.58091,49.62465 -2.14169,9.29912 -0.55698,24.02929 3.47486,32.29958 l 1.56024,3.20042 -2.06867,-2.5 c -1.13776,-1.375 -3.44665,-5.25162 -5.13087,-8.61471 l -3.0622,-6.11471 0.32068,-16.03206 0.32067,-16.03206 4.8507,-7.09492 c 2.66788,-3.90221 7.36163,-9.38977 10.43055,-12.19459 17.87941,-16.34077 47.83855,-29.91695 66.01904,-29.91695 2.82324,0 3.33021,-0.31082 2.8544,-1.75 -0.31822,-0.9625 -2.2832,-6.7465 -4.36663,-12.85334 l -3.78806,-11.10333 -4.45804,-1.19847 c -6.85469,-1.84277 -11.04196,-4.13666 -11.04196,-6.04908 0,-3.41983 6.01234,-13.64363 10.78467,-18.339 l 4.87178,-4.79322 8.18164,0.29322 8.18163,0.29322 -4.71304,3.5 c -4.68653,3.48031 -13.30668,13.21235 -13.30668,15.02307 0,0.52147 2.60967,2.2655 5.79926,3.8756 l 5.79926,2.92745 1.28593,6.33694 c 0.70725,3.48532 2.71329,10.32615 4.45784,15.20184 l 3.17193,8.8649 5.49289,1.71707 c 7.73039,2.4165 12.87284,5.29244 17.39274,9.72695 5.48864,5.38495 6.82556,9.16953 6.44302,18.23898 -0.30406,7.20864 -0.20829,7.60315 1.91951,7.90688 3.34745,0.47782 10.6068,-3.55725 17.30533,-9.61908 5.07896,-4.59619 5.80296,-4.99064 4.92588,-2.68374 -2.64018,6.9442 -9.17282,13.73985 -17.41302,18.1141 -3.68083,1.95394 -4.20846,2.00373 -6.35168,0.59944 -2.18987,-1.43485 -2.37366,-1.39279 -2.91219,0.66654 -2.1812,8.34092 -11.295,23.21209 -21.20649,34.60306 -5.71763,6.5711 -20.69336,20.51174 -22.01161,20.49023 -0.32923,-0.005 -2.95656,-1.10757 -5.83852,-2.44932 z m 42.28259,-78.11614 c -1.40818,-2.14915 -10.89777,-8.39168 -12.79267,-8.41539 -2.39868,-0.03 2.58764,8.12211 9.71552,15.88389 l 4.03448,4.39327 0.30832,-4.72978 c 0.20022,-3.07137 -0.24356,-5.57207 -1.26565,-7.13199 z m 112.49277,40.17024 -0.0354,-23.90499 2.14518,1.90499 c 6.64896,5.90449 8.02448,19.01589 3.45206,32.90499 -5.31245,16.13699 -5.52233,15.72548 -5.5618,-10.90499 z M 25.30661,253.03065 c -5.6352,-12.36792 1.39105,-24.64025 19.27625,-33.66867 7.07123,-3.56954 18.63589,-8.04286 19.2375,-7.44124 0.22982,0.22981 -1.73998,1.67114 -4.37733,3.20295 -11.02179,6.40162 -24.10792,18.38893 -27.85482,25.51589 -0.99527,1.89309 -2.5386,6.06388 -3.42963,9.26842 -1.60176,5.76067 -1.63395,5.79591 -2.85197,3.12265 z m 193.70244,-44.9628 c -3.97238,-2.15815 -16.47039,-3.79452 -24.36119,-3.18962 -5.17678,0.39685 -6.34885,0.27997 -4.5,-0.44876 6.55156,-2.58231 19.4147,-5.76766 25.85289,-6.40206 l 7.14711,-0.70426 v 6.12921 c 0,3.37107 -0.3375,6.11119 -0.75,6.08917 -0.4125,-0.022 -1.93747,-0.68517 -3.38881,-1.47368 z m -47.91662,-7.83949 c -12.1876,-10.12368 -16.27403,-21.40403 -12.39609,-34.21868 l 1.79395,-5.92811 0.74892,4.77122 c 1.54245,9.82659 7.78079,25.92416 13.90128,35.87122 1.64388,2.67166 2.8556,4.85756 2.6927,4.85756 -0.16291,0 -3.19625,-2.40894 -6.74076,-5.35321 z m -34.47789,-54.57471 -6.96668,-2.57208 10.62544,-0.28257 c 9.02294,-0.23995 11.51143,0.0545 16.5,1.95252 6.48349,2.46677 6.3549,2.54384 -5.15876,3.09185 -6.76443,0.32197 -9.13372,-0.0239 -15,-2.18972 z m -15.96668,-15.45153 -7,-2.25638 5,-1.2771 c 12.7702,-3.26175 29.32978,-2.02073 38.5,2.88529 l 3.5,1.87248 -8.5,-0.17242 c -4.675,-0.0948 -12.1,0.13739 -16.5,0.51605 -6.80304,0.58545 -9.04734,0.35086 -15,-1.56792 z m -21.50173,-12.3063 c 5.25276,-2.28623 15.73491,-4.27735 22.62074,-4.29689 6.76823,-0.0192 20.41609,2.15386 27.38099,4.35971 4.12049,1.305 2.05427,1.42665 -24.5,1.44249 -26.82548,0.016 -28.73769,-0.0969 -25.50173,-1.50531 z"
     id="path1689" /><path
     style="fill:#35794c"
     d="m 429.64111,383.08157 c 0,-160.05 0.11553,-225.37614 0.25673,-145.1692 0.1412,80.20694 0.14119,211.15694 -10e-6,291 -0.1412,79.84306 -0.25673,14.2192 -0.25672,-145.8308 z"
     id="path1687" /><path
     style="fill:#347a4c"
     d="m -202.35889,383.08157 c 1e-5,-160.05 0.11553,-225.37614 0.25673,-145.1692 0.1412,80.20694 0.14119,211.15694 -1e-5,291 -0.1412,79.84306 -0.25673,14.2192 -0.25672,-145.8308 z"
     id="path1685" /><path
     style="fill:#455e4d"
     d="m -44.68314,673.8316 c 86.71796,-0.14092 228.91796,-0.14092 316,-10e-6 87.08205,0.14091 16.131,0.2562 -157.669,0.25621 -173.8,0 -245.04895,-0.11529 -158.331,-0.2562 z"
     id="path1683" /><path
     style="fill:#4e4f4f"
     d="m -214.85214,277.08157 v -401.5 h 325.5 325.5 v 401.5 401.5 h -325.5 -325.5 z m 644.98648,106.25 -0.0135,-291.25 L 272.4825,-13.8351 c -86.70108,-58.254163 -158.15926,-105.91666 -158.79596,-105.91666 -0.6367,0 -72.11037,47.662497 -158.83037,105.91666 l -157.67273,105.91667 -0.0178,291.25 -0.0178,291.25 h 316.5 316.5 z"
     id="path1681" /></g></g>


</svg>
