<?xml version="1.0" encoding="UTF-8" standalone="no"?>
<!-- Generator: Adobe Illustrator 25.0.1, SVG Export Plug-In . SVG Version: 6.00 Build 0)  -->

<svg
   version="1.1"
   id="Capa_1"
   x="0px"
   y="0px"
   viewBox="0 0 540329 494700.47"
   xml:space="preserve"
   sodipodi:docname="logo-constructora-bolivar.svg"
   width="540329"
   height="494700.47"
   xmlns:inkscape="http://www.inkscape.org/namespaces/inkscape"
   xmlns:sodipodi="http://sodipodi.sourceforge.net/DTD/sodipodi-0.dtd"
   xmlns="http://www.w3.org/2000/svg"
   xmlns:svg="http://www.w3.org/2000/svg"><defs
   id="defs83"><style
     id="style2623">.cls-1,.cls-7{fill:none;}.cls-2{fill:#008257;}.cls-3{fill:#ffce46;}.cls-4,.cls-8{fill:#ffda5c;}.cls-5{clip-path:url(#clip-path);}.cls-6{fill:#00906a;}.cls-7{stroke:#00906a;stroke-linejoin:round;stroke-width:0.06px;}.cls-8{fill-rule:evenodd;}</style><clipPath
     id="clip-path"><rect
       id="SVGID"
       class="cls-1"
       x="29.379999"
       y="28.870001"
       width="25.969999"
       height="25.959999" /></clipPath></defs><sodipodi:namedview
   id="namedview81"
   pagecolor="#505050"
   bordercolor="#eeeeee"
   borderopacity="1"
   inkscape:showpageshadow="0"
   inkscape:pageopacity="0"
   inkscape:pagecheckerboard="0"
   inkscape:deskcolor="#505050"
   showgrid="false" />
<style
   type="text/css"
   id="style2">
	.st0{fill:#2B8B4B;}
	.st1{fill:#F8DB66;}
	.st2{fill-rule:evenodd;clip-rule:evenodd;fill:#F8DB66;}
</style>

<g
   id="g10"
   transform="translate(-234868.6,-21852.997)">
	
<path
   style="fill:#000000"
   id="path2619"
   d="" /><g
   id="g2887"
   transform="matrix(7.2213636,0,0,7.2266436,-260.57711,-56.136149)"><polygon
     class="cls-2"
     points="78.72,91.5 6.64,91.5 6.64,25.02 42.86,0.95 78.72,25.02 "
     id="polygon2629"
     inkscape:export-filename="..\..\Documents\mauneven\Tetco\Assets\Icons\constructora-bolivar.svg"
     inkscape:export-xdpi="96"
     inkscape:export-ydpi="96" /><path
     class="cls-3"
     d="M 79.21,92 H 6.14 V 24.75 L 42.86,0.36 79.21,24.75 Z M 7.14,91 H 78.22 V 25.28 L 42.85,1.55 7.14,25.28 Z"
     id="path2631" /><path
     class="cls-4"
     d="m 42.85,29.85 a 6.38,6.38 0 0 1 5.86,0.55 9.75,9.75 0 0 0 -4.24,-0.15 z"
     id="path2633" /><path
     class="cls-4"
     d="m 44.57,31.51 c 4,-0.61 4.11,0.64 4.11,0.64 A 6,6 0 0 0 46,32 Z"
     id="path2635" /><path
     class="cls-4"
     d="m 41.93,44.39 c 1.62,-1.47 3.68,-1.2 4.26,-0.28 a 2.78,2.78 0 0 1 -0.74,3.66 c 0,0 1.54,-1.72 0.44,-3.17 -0.58,-0.79 -2.25,-0.83 -3.51,0.25 -1.26,1.08 -2.45,3.68 0.53,4.33 -2.59,0.19 -3.15,-2.89 -1,-4.79"
     id="path2637" /><path
     class="cls-4"
     d="M 41.89,59.75 C 58,46.6 61,36.56 50.37,38.18 c 11.49,-4.7 11.1,9.13 -8.48,21.57"
     id="path2639" /><path
     class="cls-4"
     d="m 33.62,45.68 c -11.4,4.45 -4.48,9.12 -4.48,9.12 0,0 -4.21,-4.48 4.48,-9.12"
     id="path2641" /><path
     class="cls-4"
     d="m 43.73,54.8 c 7.25,-3.68 2.5,-7.53 2.5,-7.53 0,0 2.48,4.13 -3.36,7.53 z"
     id="path2643" /><path
     class="cls-4"
     d="M 33.46,47 A 33,33 0 0 0 35.34,41.28 7.55,7.55 0 0 1 33.46,47"
     id="path2645" /><path
     class="cls-4"
     d="m 31.39,47.06 c 0,0 -6.39,-6.24 3.61,-10.69 2.92,-1.29 6.67,-1.63 8.4,0.8 0.52,0.74 0.58,5.71 -4.8,9.55 -2.33,-0.76 -2.54,-2.08 -2.54,-2.08 a 4.92,4.92 0 0 0 2.58,1.54 c 4.45,-3.67 4.63,-8.21 4.08,-8.73 C 41,35.88 38.17,35.88 35.4,37 c -8.81,3.63 -4,10.08 -4,10.08"
     id="path2647" /><path
     class="cls-4"
     d="m 35.62,54.78 h -1.1 c 0,0 2.52,-4.37 6.42,-5.19 a 10.77,10.77 0 0 0 -5.32,5.19"
     id="path2649" /><path
     class="cls-4"
     d="m 48.28,33.36 a 2.45,2.45 0 0 0 0,2.34 11.13,11.13 0 0 0 2.15,3.12 14.82,14.82 0 0 1 -2.18,-5.46"
     id="path2651" /><path
     class="cls-4"
     d="m 36.82,31.48 c 0,0 0.16,-2.66 3.82,-3.56 5,-1.26 7.15,0.86 7.15,0.86 A 14.76,14.76 0 0 0 41.1,28.6 4.5,4.5 0 0 0 37.8,31.23 c 0,0.16 1.48,0.74 1.48,0.74 0,0 1.32,5.85 4.91,8 a 6.49,6.49 0 0 0 2.62,-2.42 3.83,3.83 0 0 1 -2.56,2.88 c -4.36,-2.27 -5.77,-8 -5.77,-8 0,0 -1.54,-0.53 -1.66,-0.93"
     id="path2653" /><path
     class="cls-4"
     d="m 38.36,38.92 c -8.24,2.15 -5,5.62 -5,5.62 0,0 -1.81,-2.73 5,-5.62"
     id="path2655" /><rect
     class="cls-4"
     x="29.379999"
     y="28.870001"
     width="25.969999"
     height="25.959999"
     id="rect2657" /><g
     class="cls-5"
     clip-path="url(#clip-path)"
     id="g2755"><path
       class="cls-6"
       d="m 42.85,29.85 a 6.38,6.38 0 0 1 5.86,0.55 9.75,9.75 0 0 0 -4.24,-0.15 z"
       id="path2659" /><path
       class="cls-7"
       d="m 42.85,29.85 a 6.38,6.38 0 0 1 5.86,0.55 9.75,9.75 0 0 0 -4.24,-0.15 z"
       id="path2661" /><path
       class="cls-6"
       d="m 44.57,31.51 c 4,-0.61 4.11,0.64 4.11,0.64 A 6,6 0 0 0 46,32 Z"
       id="path2663" /><path
       class="cls-7"
       d="m 44.57,31.51 c 4,-0.61 4.11,0.64 4.11,0.64 A 6,6 0 0 0 46,32 Z"
       id="path2665" /><path
       class="cls-6"
       d="m 41.93,44.39 c 1.62,-1.47 3.68,-1.2 4.26,-0.28 a 2.78,2.78 0 0 1 -0.74,3.66 c 0,0 1.54,-1.72 0.44,-3.17 -0.58,-0.79 -2.25,-0.83 -3.51,0.25 -1.26,1.08 -2.45,3.68 0.53,4.33 -2.59,0.19 -3.15,-2.89 -1,-4.79"
       id="path2667" /><path
       class="cls-7"
       d="m 41.93,44.39 c 1.62,-1.47 3.68,-1.2 4.26,-0.28 a 2.78,2.78 0 0 1 -0.74,3.66 c 0,0 1.54,-1.72 0.44,-3.17 -0.58,-0.79 -2.25,-0.83 -3.51,0.25 -1.26,1.08 -2.45,3.68 0.53,4.33 -2.59,0.19 -3.15,-2.89 -0.98,-4.79 z"
       id="path2669" /><path
       class="cls-6"
       d="M 41.89,59.75 C 58,46.6 61,36.56 50.37,38.18 c 11.49,-4.7 11.1,9.13 -8.48,21.57"
       id="path2671" /><path
       class="cls-7"
       d="M 41.89,59.75 C 58,46.6 61,36.56 50.37,38.18 c 11.49,-4.7 11.1,9.13 -8.48,21.57"
       id="path2673" /><path
       class="cls-6"
       d="m 33.62,45.68 c -11.4,4.45 -4.48,9.12 -4.48,9.12 0,0 -4.21,-4.48 4.48,-9.12"
       id="path2675" /><path
       class="cls-7"
       d="m 33.62,45.68 c -11.4,4.45 -4.48,9.12 -4.48,9.12 0,0 -4.21,-4.48 4.48,-9.12 z"
       id="path2677" /><path
       class="cls-6"
       d="m 43.73,54.8 c 7.25,-3.68 2.5,-7.53 2.5,-7.53 0,0 2.48,4.13 -3.36,7.53 z"
       id="path2679" /><path
       class="cls-7"
       d="m 43.73,54.8 c 7.25,-3.68 2.5,-7.53 2.5,-7.53 0,0 2.48,4.13 -3.36,7.53 z"
       id="path2681" /><path
       class="cls-6"
       d="M 33.46,47 A 33,33 0 0 0 35.34,41.28 7.55,7.55 0 0 1 33.46,47"
       id="path2683" /><path
       class="cls-7"
       d="M 33.46,47 A 33,33 0 0 0 35.34,41.28 7.55,7.55 0 0 1 33.46,47 Z"
       id="path2685" /><path
       class="cls-6"
       d="m 31.39,47.06 c 0,0 -6.39,-6.24 3.61,-10.69 2.92,-1.29 6.67,-1.63 8.4,0.8 0.52,0.74 0.58,5.71 -4.8,9.55 -2.33,-0.76 -2.54,-2.08 -2.54,-2.08 a 4.92,4.92 0 0 0 2.58,1.54 c 4.45,-3.67 4.63,-8.21 4.08,-8.73 C 41,35.88 38.17,35.88 35.4,37 c -8.81,3.63 -4,10.08 -4,10.08"
       id="path2687" /><path
       class="cls-7"
       d="m 31.39,47.06 c 0,0 -6.39,-6.24 3.61,-10.69 2.92,-1.29 6.67,-1.63 8.4,0.8 0.52,0.74 0.58,5.71 -4.8,9.55 -2.33,-0.76 -2.54,-2.08 -2.54,-2.08 a 4.92,4.92 0 0 0 2.58,1.54 c 4.45,-3.67 4.63,-8.21 4.08,-8.73 C 41,35.88 38.17,35.88 35.4,37 26.59,40.61 31.39,47.06 31.39,47.06 Z"
       id="path2689" /><path
       class="cls-6"
       d="m 35.62,54.78 h -1.1 c 0,0 2.52,-4.37 6.42,-5.19 a 10.77,10.77 0 0 0 -5.32,5.19"
       id="path2691" /><path
       class="cls-7"
       d="m 35.62,54.78 h -1.1 c 0,0 2.52,-4.37 6.42,-5.19 a 10.77,10.77 0 0 0 -5.32,5.19 z"
       id="path2693" /><path
       class="cls-6"
       d="m 48.28,33.36 a 2.45,2.45 0 0 0 0,2.34 11.13,11.13 0 0 0 2.15,3.12 14.82,14.82 0 0 1 -2.18,-5.46"
       id="path2695" /><path
       class="cls-7"
       d="m 48.28,33.36 a 2.45,2.45 0 0 0 0,2.34 11.13,11.13 0 0 0 2.15,3.12 14.82,14.82 0 0 1 -2.15,-5.46 z"
       id="path2697" /><path
       class="cls-6"
       d="m 36.82,31.48 c 0,0 0.16,-2.66 3.82,-3.56 5,-1.26 7.15,0.86 7.15,0.86 A 14.76,14.76 0 0 0 41.1,28.6 4.5,4.5 0 0 0 37.8,31.23 c 0,0.16 1.48,0.74 1.48,0.74 0,0 1.32,5.85 4.91,8 a 6.49,6.49 0 0 0 2.62,-2.42 3.83,3.83 0 0 1 -2.56,2.88 c -4.36,-2.27 -5.77,-8 -5.77,-8 0,0 -1.54,-0.53 -1.66,-0.93"
       id="path2699" /><path
       class="cls-7"
       d="m 36.82,31.48 c 0,0 0.16,-2.66 3.82,-3.56 5,-1.26 7.15,0.86 7.15,0.86 A 14.76,14.76 0 0 0 41.1,28.6 4.5,4.5 0 0 0 37.8,31.23 c 0,0.16 1.48,0.74 1.48,0.74 0,0 1.32,5.85 4.91,8 a 6.49,6.49 0 0 0 2.62,-2.42 3.83,3.83 0 0 1 -2.56,2.88 c -4.36,-2.27 -5.77,-8 -5.77,-8 0,0 -1.54,-0.55 -1.66,-0.95 z"
       id="path2701" /><path
       class="cls-6"
       d="m 38.36,38.92 c -8.24,2.15 -5,5.62 -5,5.62 0,0 -1.81,-2.73 5,-5.62"
       id="path2703" /><path
       class="cls-7"
       d="m 38.36,38.92 c -8.24,2.15 -5,5.62 -5,5.62 0,0 -1.8,-2.73 5,-5.62 z"
       id="path2705" /><path
       class="cls-6"
       d="m 42.85,29.85 a 6.38,6.38 0 0 1 5.86,0.55 9.75,9.75 0 0 0 -4.24,-0.15 z"
       id="path2707" /><path
       class="cls-7"
       d="m 42.85,29.85 a 6.38,6.38 0 0 1 5.86,0.55 9.75,9.75 0 0 0 -4.24,-0.15 z"
       id="path2709" /><path
       class="cls-6"
       d="m 44.57,31.51 c 4,-0.61 4.11,0.64 4.11,0.64 A 6,6 0 0 0 46,32 Z"
       id="path2711" /><path
       class="cls-7"
       d="m 44.57,31.51 c 4,-0.61 4.11,0.64 4.11,0.64 A 6,6 0 0 0 46,32 Z"
       id="path2713" /><path
       class="cls-6"
       d="m 41.93,44.39 c 1.62,-1.47 3.68,-1.2 4.26,-0.28 a 2.78,2.78 0 0 1 -0.74,3.66 c 0,0 1.54,-1.72 0.44,-3.17 -0.58,-0.79 -2.25,-0.83 -3.51,0.25 -1.26,1.08 -2.45,3.68 0.53,4.33 -2.59,0.19 -3.15,-2.89 -1,-4.79"
       id="path2715" /><path
       class="cls-7"
       d="m 41.93,44.39 c 1.62,-1.47 3.68,-1.2 4.26,-0.28 a 2.78,2.78 0 0 1 -0.74,3.66 c 0,0 1.54,-1.72 0.44,-3.17 -0.58,-0.79 -2.25,-0.83 -3.51,0.25 -1.26,1.08 -2.45,3.68 0.53,4.33 -2.59,0.19 -3.15,-2.89 -0.98,-4.79 z"
       id="path2717" /><path
       class="cls-6"
       d="M 41.89,59.75 C 58,46.6 61,36.56 50.37,38.18 c 11.49,-4.7 11.1,9.13 -8.48,21.57"
       id="path2719" /><path
       class="cls-7"
       d="M 41.89,59.75 C 58,46.6 61,36.56 50.37,38.18 c 11.49,-4.7 11.1,9.13 -8.48,21.57"
       id="path2721" /><path
       class="cls-6"
       d="m 33.62,45.68 c -11.4,4.45 -4.48,9.12 -4.48,9.12 0,0 -4.21,-4.48 4.48,-9.12"
       id="path2723" /><path
       class="cls-7"
       d="m 33.62,45.68 c -11.4,4.45 -4.48,9.12 -4.48,9.12 0,0 -4.21,-4.48 4.48,-9.12 z"
       id="path2725" /><path
       class="cls-6"
       d="m 43.73,54.8 c 7.25,-3.68 2.5,-7.53 2.5,-7.53 0,0 2.48,4.13 -3.36,7.53 z"
       id="path2727" /><path
       class="cls-7"
       d="m 43.73,54.8 c 7.25,-3.68 2.5,-7.53 2.5,-7.53 0,0 2.48,4.13 -3.36,7.53 z"
       id="path2729" /><path
       class="cls-6"
       d="M 33.46,47 A 33,33 0 0 0 35.34,41.28 7.55,7.55 0 0 1 33.46,47"
       id="path2731" /><path
       class="cls-7"
       d="M 33.46,47 A 33,33 0 0 0 35.34,41.28 7.55,7.55 0 0 1 33.46,47 Z"
       id="path2733" /><path
       class="cls-6"
       d="m 31.39,47.06 c 0,0 -6.39,-6.24 3.61,-10.69 2.92,-1.29 6.67,-1.63 8.4,0.8 0.52,0.74 0.58,5.71 -4.8,9.55 -2.33,-0.76 -2.54,-2.08 -2.54,-2.08 a 4.92,4.92 0 0 0 2.58,1.54 c 4.45,-3.67 4.63,-8.21 4.08,-8.73 C 41,35.88 38.17,35.88 35.4,37 c -8.81,3.63 -4,10.08 -4,10.08"
       id="path2735" /><path
       class="cls-7"
       d="m 31.39,47.06 c 0,0 -6.39,-6.24 3.61,-10.69 2.92,-1.29 6.67,-1.63 8.4,0.8 0.52,0.74 0.58,5.71 -4.8,9.55 -2.33,-0.76 -2.54,-2.08 -2.54,-2.08 a 4.92,4.92 0 0 0 2.58,1.54 c 4.45,-3.67 4.63,-8.21 4.08,-8.73 C 41,35.88 38.17,35.88 35.4,37 26.59,40.61 31.39,47.06 31.39,47.06 Z"
       id="path2737" /><path
       class="cls-6"
       d="m 35.62,54.78 h -1.1 c 0,0 2.52,-4.37 6.42,-5.19 a 10.77,10.77 0 0 0 -5.32,5.19"
       id="path2739" /><path
       class="cls-7"
       d="m 35.62,54.78 h -1.1 c 0,0 2.52,-4.37 6.42,-5.19 a 10.77,10.77 0 0 0 -5.32,5.19 z"
       id="path2741" /><path
       class="cls-6"
       d="m 48.28,33.36 a 2.45,2.45 0 0 0 0,2.34 11.13,11.13 0 0 0 2.15,3.12 14.82,14.82 0 0 1 -2.18,-5.46"
       id="path2743" /><path
       class="cls-7"
       d="m 48.28,33.36 a 2.45,2.45 0 0 0 0,2.34 11.13,11.13 0 0 0 2.15,3.12 14.82,14.82 0 0 1 -2.15,-5.46 z"
       id="path2745" /><path
       class="cls-6"
       d="m 36.82,31.48 c 0,0 0.16,-2.66 3.82,-3.56 5,-1.26 7.15,0.86 7.15,0.86 A 14.76,14.76 0 0 0 41.1,28.6 4.5,4.5 0 0 0 37.8,31.23 c 0,0.16 1.48,0.74 1.48,0.74 0,0 1.32,5.85 4.91,8 a 6.49,6.49 0 0 0 2.62,-2.42 3.83,3.83 0 0 1 -2.56,2.88 c -4.36,-2.27 -5.77,-8 -5.77,-8 0,0 -1.54,-0.53 -1.66,-0.93"
       id="path2747" /><path
       class="cls-7"
       d="m 36.82,31.48 c 0,0 0.16,-2.66 3.82,-3.56 5,-1.26 7.15,0.86 7.15,0.86 A 14.76,14.76 0 0 0 41.1,28.6 4.5,4.5 0 0 0 37.8,31.23 c 0,0.16 1.48,0.74 1.48,0.74 0,0 1.32,5.85 4.91,8 a 6.49,6.49 0 0 0 2.62,-2.42 3.83,3.83 0 0 1 -2.56,2.88 c -4.36,-2.27 -5.77,-8 -5.77,-8 0,0 -1.54,-0.55 -1.66,-0.95 z"
       id="path2749" /><path
       class="cls-6"
       d="m 38.36,38.92 c -8.24,2.15 -5,5.62 -5,5.62 0,0 -1.81,-2.73 5,-5.62"
       id="path2751" /><path
       class="cls-7"
       d="m 38.36,38.92 c -8.24,2.15 -5,5.62 -5,5.62 0,0 -1.8,-2.73 5,-5.62 z"
       id="path2753" /></g><path
     class="cls-4"
     d="M 72.58,78.11 C 72.07,78.02 71.45,77.43 70.71,76.33 L 69.4,74.16 a 2.12,2.12 0 0 0 2,-2.22 1.81,1.81 0 0 0 -1,-1.66 3.83,3.83 0 0 0 -1.93,-0.44 h -1.39 a 25.64,25.64 0 0 1 -2.91,0 H 64.1 v 0.28 c 0,0 1.39,0.22 1.39,0.68 a 10.48,10.48 0 0 1 0,1.1 v 4.8 a 3.33,3.33 0 0 1 -0.09,0.87 c -0.1,0.33 -1.12,0.56 -1.12,0.56 l -0.06,0.32 h 0.1 c 0.69,-0.06 1.36,-0.08 2,-0.08 0.64,0 1.29,0 1.91,0.08 h 0.09 v -0.29 a 9.28,9.28 0 0 1 -1.28,-0.5 c -0.14,-0.1 -0.16,-0.34 -0.16,-0.7 0,-0.06 0,-0.28 0,-0.55 0,-0.27 0,-0.51 0,-0.71 v -1.33 h 0.88 a 43,43 0 0 1 2.62,4 v 0 c 0,0 0.73,0 1.08,0 0.35,0 0.72,0 1,0 h 0.09 v -0.33 z m -4.81,-4.5 h -0.84 v -3 h 1.2 c 1.23,0 1.78,0.48 1.79,1.5 a 1.26,1.26 0 0 1 -0.64,1.24 3.35,3.35 0 0 1 -1.51,0.26"
     id="path2757" /><path
     class="cls-4"
     d="M 19.26,74.45 A 3.43,3.43 0 0 0 18,74 a 3.57,3.57 0 0 0 1,-0.43 1.84,1.84 0 0 0 0.85,-1.47 2,2 0 0 0 -0.92,-1.75 3.44,3.44 0 0 0 -2,-0.48 H 14.86 14.2 c -0.83,0 -1.5,-0.06 -1.5,-0.06 v 0.3 c 0,0 1.29,0.17 1.4,0.78 0,0.08 0.05,6.3 0,6.52 -0.25,0.54 -1.35,0.71 -1.35,0.71 v 0.31 c 0,0 0.81,-0.08 1.71,-0.07 h 0.64 2.27 a 3.36,3.36 0 0 0 2,-0.55 2,2 0 0 0 0.92,-1.77 1.85,1.85 0 0 0 -0.95,-1.67 M 15.5,71.84 c 0,-0.41 0,-0.81 0,-1.34 0.27,0 0.62,0 1,0 1.27,0 1.85,0.42 1.86,1.5 0.01,1.08 -0.62,1.44 -2,1.45 h -0.9 z m 1,5.8 z m -0.07,-0.06 v 0 h -0.88 c 0,-0.28 0,-0.5 0,-0.74 v -2.42 h 0.82 c 1.67,0 2.44,0.58 2.45,1.73 0.01,1.15 -0.75,1.5 -2.36,1.51"
     id="path2759" /><path
     class="cls-4"
     d="M 26.87,69.69 A 4.12,4.12 0 0 0 23.7,71 a 4.61,4.61 0 0 0 -1.17,3.26 4.43,4.43 0 0 0 1.13,3.1 3.88,3.88 0 0 0 3,1.28 v 0 a 3.88,3.88 0 0 0 3.13,-1.42 5.12,5.12 0 0 0 1.08,-3.33 v 0 a 4.24,4.24 0 0 0 -1.07,-3 3.86,3.86 0 0 0 -2.94,-1.18 m 2.4,4.78 a 4.27,4.27 0 0 1 -0.55,2.29 2.1,2.1 0 0 1 -1.93,1.07 2.22,2.22 0 0 1 -2.13,-1.44 6.57,6.57 0 0 1 -0.52,-2.78 3.56,3.56 0 0 1 0.64,-2.19 2.26,2.26 0 0 1 1.95,-1 c 1.69,0 2.53,1.29 2.54,4 z"
     id="path2761" /><path
     class="cls-4"
     d="m 37.85,77.51 h -2.44 v -5.45 c 0,-0.67 0,-1 0,-1.17 0,-0.55 1.49,-0.77 1.49,-0.77 v -0.28 c 0,0 -1.49,0.09 -2.18,0.09 -0.69,0 -2.1,-0.1 -2.1,-0.1 v 0.28 c 0,0 1.39,0.23 1.39,0.76 a 9.84,9.84 0 0 1 0,1.08 v 4.62 a 1.9,1.9 0 0 1 -0.09,0.88 c -0.26,0.51 -1.33,0.66 -1.33,0.66 v 0.34 h 0.09 c 0.89,0 1.89,-0.08 3,-0.08 1.11,0 2.3,0 3.56,0.08 h 0.08 l 0.11,-2.28 h -0.36 c 0,0 -0.18,1.4 -1.26,1.35"
     id="path2763" /><path
     class="cls-4"
     d="m 45.22,67.56 v 0 a 0.66,0.66 0 0 0 -0.66,-0.64 0.92,0.92 0 0 0 -0.62,0.32 l -1.79,2.08 h 0.66 l 2,-1.17 a 0.71,0.71 0 0 0 0.37,-0.57 z"
     id="path2765" /><path
     class="cls-4"
     d="m 43.15,70 c -0.49,0 -1.16,0 -2,-0.11 h -0.09 v 0.28 c 0,0 1.16,0.26 1.31,0.87 a 8.15,8.15 0 0 1 0.06,1.33 c 0,0 0,2 0,3.06 0,1.44 -0.07,2.08 -0.44,2.38 a 2.25,2.25 0 0 1 -1,0.35 v 0.35 h 0.09 c 0.78,-0.07 1.44,-0.1 2,-0.1 0.56,0 1.11,0 1.93,0.1 H 45.1 V 78.1 a 3.11,3.11 0 0 1 -1,-0.36 c -0.25,-0.19 -0.42,-0.93 -0.41,-2.37 0,-0.2 0,-3 0,-3.05 0,-0.55 0,-1 0,-1.35 0.08,-0.69 1.32,-0.86 1.32,-0.86 v -0.28 h -0.09 c -0.86,0.07 -1.5,0.11 -1.93,0.11"
     id="path2767" /><path
     class="cls-4"
     d="m 54.89,70.13 h 0.06 v -0.28 h -0.09 a 9.69,9.69 0 0 1 -1.24,0.08 c -0.44,0 -0.91,0 -1.41,-0.08 h -0.09 v 0.28 h 0.06 c 0.35,0.11 0.84,0.26 0.82,0.43 -0.15,0.78 -1.55,4.35 -1.91,5.23 -0.28,-0.64 -2.08,-5.07 -2.07,-5.18 0.01,-0.11 -0.1,-0.25 1,-0.48 h 0.06 v -0.28 c 0,0 -1.2,0.09 -1.78,0.09 a 11,11 0 0 1 -1.85,-0.09 v 0.28 a 1.8,1.8 0 0 1 1.09,0.77 c 0.88,2 1.91,4.58 3,7.66 v 0.06 h 0.41 v -0.06 c 0.8,-2.21 2.51,-6.63 3,-7.69 a 1.32,1.32 0 0 1 0.91,-0.72"
     id="path2769" /><path
     class="cls-4"
     d="m 59.2,69.62 v -0.05 h -0.62 v 0.05 c -1.34,3.18 -1.78,4.14 -2.91,6.79 -0.17,0.39 -0.26,0.68 -0.44,1 -0.18,0.32 -1.06,0.68 -1.06,0.68 v 0.34 h 0.1 a 14.13,14.13 0 0 1 1.46,-0.08 c 0.49,0 1,0 1.5,0.08 h 0.09 v -0.34 l -1.09,-0.41 c 0.37,-1 0.6,-1.56 0.82,-2.08 h 1.44 1.59 a 18.5,18.5 0 0 1 0.71,2.07 8.28,8.28 0 0 1 -1.19,0.37 h -0.1 v 0.35 h 0.09 c 0.57,0 1.19,-0.08 1.83,-0.08 0.64,0 1.32,0 2,0.08 h 0.09 v -0.34 a 3,3 0 0 1 -1,-0.46 4.22,4.22 0 0 1 -0.46,-1 c -1.77,-4.28 -2.42,-5.91 -2.85,-7 m -2,5.4 1.3,-3.27 1.27,3.28 z"
     id="path2771" /><path
     class="cls-4"
     d="m 20.72,64.73 c -0.1,0.23 -0.18,0.26 -0.18,0.26 a 1.51,1.51 0 0 1 -0.6,0.14 1.49,1.49 0 0 1 -1.19,-0.46 2.11,2.11 0 0 1 -0.39,-1.28 1.89,1.89 0 0 1 0.39,-1.27 1.54,1.54 0 0 1 1.25,-0.5 c 0.37,0 0.52,0.06 0.63,0.16 A 2.39,2.39 0 0 1 20.9,62.4 H 21 v 0 c 0,-0.18 0,-0.36 0,-0.54 0,-0.18 0,-0.35 0,-0.52 v 0 0 a 4.56,4.56 0 0 0 -0.92,-0.09 2.69,2.69 0 0 0 -1.78,0.62 2.09,2.09 0 0 0 -0.79,1.67 2,2 0 0 0 0.72,1.6 2.55,2.55 0 0 0 1.68,0.54 3.41,3.41 0 0 0 1.09,-0.25 v 0 c 0,0 0,-0.41 0,-1.11 h -0.1 c 0,0 -0.1,0.25 -0.18,0.42"
     id="path2773" /><path
     class="cls-4"
     d="m 23.68,61.21 a 2.09,2.09 0 0 0 -1.58,0.63 2.35,2.35 0 0 0 -0.58,1.63 2.23,2.23 0 0 0 0.56,1.53 2,2 0 0 0 1.5,0.64 v 0 a 1.92,1.92 0 0 0 1.56,-0.71 2.53,2.53 0 0 0 0.54,-1.66 2.11,2.11 0 0 0 -0.53,-1.48 2,2 0 0 0 -1.47,-0.59 m 1.2,2.38 a 2.16,2.16 0 0 1 -0.27,1.14 1.06,1.06 0 0 1 -1,0.54 1.13,1.13 0 0 1 -1.06,-0.72 3.14,3.14 0 0 1 -0.25,-1.39 1.8,1.8 0 0 1 0.31,-1.09 1.15,1.15 0 0 1 1,-0.48 c 0.85,0 1.26,0.64 1.27,2"
     id="path2775" /><path
     class="cls-8"
     d="m 30.32,61.34 -0.35,0.13 c -0.19,0.07 -0.18,0.3 -0.19,0.4 0,0.56 0,1.14 0,1.9 0,0.15 0,0.68 0,1.78 H 29.4 c -0.4,-0.52 -0.7,-0.91 -1.22,-1.61 -0.52,-0.7 -0.7,-1 -1.15,-1.63 l -0.06,-0.1 c 0,0 0,1 0,1.39 0,0.39 0,1.16 0.05,1.48 0.05,0.32 0.4,0.25 0.53,0.29 v 0.14 a 9.65,9.65 0 0 0 -1.7,0 v -0.13 l 0.31,-0.1 c 0.3,-0.07 0.29,-1.09 0.29,-2.18 v -1.25 c 0,-0.39 -0.36,-0.46 -0.59,-0.53 v -0.11 a 5.74,5.74 0 0 0 1.31,0 14.45,14.45 0 0 0 1.11,1.69 c 0.38,0.52 0.62,0.83 1,1.33 V 64 c 0,0 0,-1.48 0,-1.62 a 2.75,2.75 0 0 0 -0.06,-0.7 c -0.07,-0.17 -0.24,-0.19 -0.54,-0.32 v -0.1 a 9.42,9.42 0 0 0 1.68,0 z"
     id="path2777" /><path
     class="cls-4"
     d="m 33.2,63.73 v 0 0 0 0 A 1.64,1.64 0 0 0 32.81,63.42 L 32,63 c -0.34,-0.19 -0.5,-0.41 -0.5,-0.67 a 0.68,0.68 0 0 1 0.22,-0.5 l 0.07,-0.05 v 0 a 0.62,0.62 0 0 1 0.19,-0.07 1.23,1.23 0 0 1 0.31,0 h 0.25 a 0.65,0.65 0 0 1 0.26,0.06 l 0.24,0.68 h 0.11 v -1 0 a 2.4,2.4 0 0 0 -1,-0.21 1.64,1.64 0 0 0 -1,0.3 1.07,1.07 0 0 0 -0.47,0.91 1,1 0 0 0 0.06,0.35 1.4,1.4 0 0 0 0.56,0.61 h 0.05 v 0 c 0.24,0.14 0.45,0.28 0.72,0.43 0.27,0.15 0.5,0.41 0.5,0.64 a 0.93,0.93 0 0 1 0,0.24 v 0 a 0.71,0.71 0 0 1 -0.59,0.44 H 31.67 A 1.18,1.18 0 0 1 31.05,65.01 L 31,64.27 h -0.14 v 0 l -0.12,1.13 v 0 a 2.73,2.73 0 0 0 1,0.18 2.19,2.19 0 0 0 1.16,-0.27 1.08,1.08 0 0 0 0.58,-1 1,1 0 0 0 -0.21,-0.64"
     id="path2779" /><path
     class="cls-8"
     d="M 37.33,62.36 H 37.24 A 3.09,3.09 0 0 0 36.95,61.71 0.54,0.54 0 0 0 36.53,61.59 H 36 v 2.92 a 1,1 0 0 0 0.1,0.58 c 0,0.07 0.19,0.16 0.55,0.27 v 0.13 a 10.91,10.91 0 0 0 -2,0 v -0.13 c 0.36,-0.11 0.49,-0.2 0.54,-0.27 0.05,-0.07 0.11,-0.23 0.11,-0.58 V 61.6 h -0.54 a 0.54,0.54 0 0 0 -0.42,0.12 2.76,2.76 0 0 0 -0.28,0.65 H 34 v -1.16 q 1.68,0.07 3.36,0 z"
     id="path2781" /><path
     class="cls-8"
     d="M 41.28,64.46 C 41.07,64.1 40.85,63.74 40.63,63.38 a 1.06,1.06 0 0 0 1,-1.11 0.89,0.89 0 0 0 -0.49,-0.82 1.84,1.84 0 0 0 -1,-0.22 c -0.16,0 -0.39,0 -0.69,0 h -0.76 q -0.37,0 -0.69,0 v 0 0.17 c 0,0 0.63,0 0.69,0.34 a 5.17,5.17 0 0 1 0,0.52 v 2.36 a 2.19,2.19 0 0 1 0,0.48 c 0,0.18 -0.56,0.27 -0.56,0.27 v 0.15 0 c 0.34,0 0.68,0 1,0 0.32,0 0.64,0 1,0 v 0 -0.14 a 2.14,2.14 0 0 1 -0.62,-0.26 c -0.07,0 -0.1,-0.13 -0.1,-0.31 V 64.5 c 0,-0.13 0,-0.25 0,-0.35 v -0.66 h 0.43 a 22,22 0 0 1 1.31,2 v 0 h 0.5 0.53 v 0 -0.17 c -0.29,0 -0.61,-0.34 -1,-0.88 M 39.82,63.1 H 39.4 V 61.62 H 40 c 0.64,0 0.92,0.24 0.92,0.75 a 0.63,0.63 0 0 1 -0.32,0.61 1.6,1.6 0 0 1 -0.75,0.13"
     id="path2783" /><path
     class="cls-4"
     d="m 45.81,61.25 a 7.81,7.81 0 0 1 -0.85,0 h -0.05 v 0.14 c 0,0 0.53,0.08 0.61,0.31 a 5.25,5.25 0 0 1 0.08,1.06 5.76,5.76 0 0 1 -0.25,2 1,1 0 0 1 -0.78,0.35 1.07,1.07 0 0 1 -0.91,-0.34 C 43.23,64.25 43.45,62 43.45,61.83 c 0,-0.17 0.68,-0.43 0.68,-0.43 v -0.15 0 c -0.34,0 -0.69,0 -1,0 -0.31,0 -0.68,0 -1,0 v 0 0.15 c 0,0 0.72,0.14 0.72,0.5 0,0.13 -0.12,1.34 -0.11,1.84 a 2.41,2.41 0 0 0 0.3,1.29 1.88,1.88 0 0 0 1.51,0.58 1.5,1.5 0 0 0 1.43,-0.71 3.2,3.2 0 0 0 0.25,-1.45 v -1.73 c 0,-0.31 0.55,-0.37 0.55,-0.37 v -0.14 0 a 7.27,7.27 0 0 1 -0.82,0"
     id="path2785" /><path
     class="cls-4"
     d="m 50,64.73 c -0.11,0.23 -0.19,0.26 -0.19,0.26 A 1.36,1.36 0 0 1 49.21,65.12 1.49,1.49 0 0 1 48,64.67 2.14,2.14 0 0 1 47.61,63.38 1.86,1.86 0 0 1 48,62.12 a 1.52,1.52 0 0 1 1.25,-0.5 c 0.37,0 0.52,0.05 0.63,0.16 a 2.48,2.48 0 0 1 0.28,0.61 h 0.12 v 0 c 0,-0.19 0,-0.37 0,-0.55 0,-0.18 0,-0.35 0,-0.51 v 0 0 a 4.59,4.59 0 0 0 -0.93,-0.09 2.78,2.78 0 0 0 -1.78,0.62 2.15,2.15 0 0 0 -0.79,1.67 2,2 0 0 0 0.72,1.6 2.58,2.58 0 0 0 1.69,0.55 3.11,3.11 0 0 0 1.11,-0.17 v 0 c 0,0 0,-0.41 0,-1.11 h -0.14 c 0,0 -0.09,0.25 -0.17,0.43"
     id="path2787" /><path
     class="cls-8"
     d="M 54.13,62.37 H 54 A 3.17,3.17 0 0 0 53.7,61.72 C 53.63,61.63 53.49,61.6 53.28,61.6 h -0.53 v 2.93 a 1,1 0 0 0 0.1,0.57 1.17,1.17 0 0 0 0.55,0.28 v 0.12 a 10.91,10.91 0 0 0 -2,0 v -0.12 c 0.36,-0.12 0.49,-0.21 0.54,-0.28 0.05,-0.07 0.11,-0.23 0.11,-0.57 v -2.92 h -0.54 a 0.54,0.54 0 0 0 -0.42,0.12 3,3 0 0 0 -0.28,0.65 h -0.1 v -1.16 q 1.68,0.08 3.36,0 z"
     id="path2789" /><path
     class="cls-4"
     d="m 56.6,61.21 a 2.06,2.06 0 0 0 -1.58,0.63 2.31,2.31 0 0 0 -0.59,1.63 2.19,2.19 0 0 0 0.57,1.53 1.93,1.93 0 0 0 1.49,0.64 v 0 a 1.91,1.91 0 0 0 1.55,-0.71 2.48,2.48 0 0 0 0.55,-1.66 2.07,2.07 0 0 0 -0.54,-1.48 1.93,1.93 0 0 0 -1.46,-0.59 m 1.19,2.38 a 2.16,2.16 0 0 1 -0.27,1.14 1,1 0 0 1 -1,0.54 1.14,1.14 0 0 1 -1.07,-0.72 3.46,3.46 0 0 1 -0.25,-1.39 1.8,1.8 0 0 1 0.31,-1.09 1.15,1.15 0 0 1 1,-0.48 c 0.85,0 1.27,0.64 1.27,2"
     id="path2791" /><path
     class="cls-8"
     d="M 62.06,64.46 61.4,63.38 a 1.06,1.06 0 0 0 1,-1.12 0.89,0.89 0 0 0 -0.49,-0.83 2,2 0 0 0 -1,-0.22 h -0.69 -0.77 c -0.25,0 -0.48,0 -0.69,0 v 0 0.17 c 0,0 0.64,0 0.7,0.34 a 5.17,5.17 0 0 1 0,0.52 v 2.38 a 2.19,2.19 0 0 1 0,0.48 c 0,0.19 -0.56,0.27 -0.56,0.27 v 0.15 0 c 0.35,0 0.68,0 1,0 0.32,0 0.64,0 0.95,0 h 0.05 v -0.13 a 2.48,2.48 0 0 1 -0.62,-0.26 0.37,0.37 0 0 1 -0.11,-0.32 c 0,0 0,-0.17 0,-0.31 0,-0.14 0,-0.25 0,-0.35 v -0.67 h 0.44 a 23,23 0 0 1 1.31,2 v 0 a 4.18,4.18 0 0 1 0.51,0 4.27,4.27 0 0 1 0.52,0 v 0 -0.16 c -0.29,0 -0.61,-0.35 -1,-0.9 M 60.58,63.1 h -0.42 v -1.5 h 0.57 c 0.65,0 0.92,0.24 0.93,0.75 a 0.64,0.64 0 0 1 -0.32,0.62 1.76,1.76 0 0 1 -0.76,0.13"
     id="path2793" /><path
     class="cls-8"
     d="m 64.84,63.86 0.63,-1.57 0.59,1.57 z m 1,-2.63 v 0 h -0.3 v 0 c -0.64,1.53 -0.86,2 -1.41,3.3 a 4.51,4.51 0 0 1 -0.21,0.49 c -0.11,0.21 -0.5,0.33 -0.5,0.33 v 0.16 0 c 0.23,0 0.47,0 0.71,0 0.24,0 0.47,0 0.72,0 v 0 -0.16 l -0.53,-0.2 c 0.18,-0.45 0.29,-0.75 0.4,-1 h 1.46 a 9.92,9.92 0 0 1 0.34,1 4.75,4.75 0 0 1 -0.57,0.18 v 0 0.16 0 c 0.28,0 0.57,0 0.89,0 0.32,0 0.63,0 1,0 v 0 -0.16 a 1.5,1.5 0 0 1 -0.48,-0.22 2,2 0 0 1 -0.22,-0.48 c -0.86,-2.06 -1.17,-2.88 -1.37,-3.42"
     id="path2795" /></g></g>


</svg>
